<?xml version="1.0" encoding="utf-8" standalone="no"?>
<!DOCTYPE svg PUBLIC "-//W3C//DTD SVG 1.1//EN"
  "http://www.w3.org/Graphics/SVG/1.1/DTD/svg11.dtd">
<svg xmlns:xlink="http://www.w3.org/1999/xlink" width="920.80954pt" height="353.961469pt" viewBox="0 0 920.80954 353.961469" xmlns="http://www.w3.org/2000/svg" version="1.1">
 <metadata>
  <rdf:RDF xmlns:dc="http://purl.org/dc/elements/1.1/" xmlns:cc="http://creativecommons.org/ns#" xmlns:rdf="http://www.w3.org/1999/02/22-rdf-syntax-ns#">
   <cc:Work>
    <dc:type rdf:resource="http://purl.org/dc/dcmitype/StillImage"/>
    <dc:date>2026-06-27T13:31:17.249404</dc:date>
    <dc:format>image/svg+xml</dc:format>
    <dc:creator>
     <cc:Agent>
      <dc:title>Matplotlib v3.10.9, https://matplotlib.org/</dc:title>
     </cc:Agent>
    </dc:creator>
   </cc:Work>
  </rdf:RDF>
 </metadata>
 <defs>
  <style type="text/css">*{stroke-linejoin: round; stroke-linecap: butt}</style>
 </defs>
 <g id="figure_1">
  <g id="patch_1">
   <path d="M 0 353.961469 
L 920.80954 353.961469 
L 920.80954 0 
L 0 0 
z
" style="fill: #ffffff"/>
  </g>
  <g id="axes_1">
   <g id="patch_2">
    <path d="M 46.90375 314.212 
L 366.331915 314.212 
L 366.331915 69.936 
L 46.90375 69.936 
z
" style="fill: #ffffff"/>
   </g>
   <g id="matplotlib.axis_1">
    <g id="xtick_1">
     <g id="line2d_1">
      <path d="M 61.423212 314.212 
L 61.423212 69.936 
" clip-path="url(#p47b99018cd)" style="fill: none; stroke: #cccccc; stroke-opacity: 0.3; stroke-linecap: round"/>
     </g>
     <g id="text_1">
      <!-- High -->
      <g style="fill: #1a8c3a" transform="translate(47.082821 332.070281) scale(0.11 -0.11)">
       <defs>
        <path id="DejaVuSans-Bold-48" d="M 588 4666 
L 1791 4666 
L 1791 2888 
L 3566 2888 
L 3566 4666 
L 4769 4666 
L 4769 0 
L 3566 0 
L 3566 1978 
L 1791 1978 
L 1791 0 
L 588 0 
L 588 4666 
z
" transform="scale(0.015625)"/>
        <path id="DejaVuSans-Bold-69" d="M 538 3500 
L 1656 3500 
L 1656 0 
L 538 0 
L 538 3500 
z
M 538 4863 
L 1656 4863 
L 1656 3950 
L 538 3950 
L 538 4863 
z
" transform="scale(0.015625)"/>
        <path id="DejaVuSans-Bold-67" d="M 2919 594 
Q 2688 288 2409 144 
Q 2131 0 1766 0 
Q 1125 0 706 504 
Q 288 1009 288 1791 
Q 288 2575 706 3076 
Q 1125 3578 1766 3578 
Q 2131 3578 2409 3434 
Q 2688 3291 2919 2981 
L 2919 3500 
L 4044 3500 
L 4044 353 
Q 4044 -491 3511 -936 
Q 2978 -1381 1966 -1381 
Q 1638 -1381 1331 -1331 
Q 1025 -1281 716 -1178 
L 716 -306 
Q 1009 -475 1290 -558 
Q 1572 -641 1856 -641 
Q 2406 -641 2662 -400 
Q 2919 -159 2919 353 
L 2919 594 
z
M 2181 2772 
Q 1834 2772 1640 2515 
Q 1447 2259 1447 1791 
Q 1447 1309 1634 1061 
Q 1822 813 2181 813 
Q 2531 813 2725 1069 
Q 2919 1325 2919 1791 
Q 2919 2259 2725 2515 
Q 2531 2772 2181 2772 
z
" transform="scale(0.015625)"/>
        <path id="DejaVuSans-Bold-68" d="M 4056 2131 
L 4056 0 
L 2931 0 
L 2931 347 
L 2931 1625 
Q 2931 2084 2911 2256 
Q 2891 2428 2841 2509 
Q 2775 2619 2662 2680 
Q 2550 2741 2406 2741 
Q 2056 2741 1856 2470 
Q 1656 2200 1656 1722 
L 1656 0 
L 538 0 
L 538 4863 
L 1656 4863 
L 1656 2988 
Q 1909 3294 2193 3439 
Q 2478 3584 2822 3584 
Q 3428 3584 3742 3212 
Q 4056 2841 4056 2131 
z
" transform="scale(0.015625)"/>
       </defs>
       <use xlink:href="#DejaVuSans-Bold-48"/>
       <use xlink:href="#DejaVuSans-Bold-69" transform="translate(83.691406 0)"/>
       <use xlink:href="#DejaVuSans-Bold-67" transform="translate(117.96875 0)"/>
       <use xlink:href="#DejaVuSans-Bold-68" transform="translate(189.550781 0)"/>
      </g>
      <!-- (Tier 3) -->
      <g style="fill: #1a8c3a" transform="translate(38.57415 344.473812) scale(0.11 -0.11)">
       <defs>
        <path id="DejaVuSans-Bold-28" d="M 2413 -844 
L 1484 -844 
Q 1006 -72 778 623 
Q 550 1319 550 2003 
Q 550 2688 779 3389 
Q 1009 4091 1484 4856 
L 2413 4856 
Q 2013 4116 1813 3408 
Q 1613 2700 1613 2009 
Q 1613 1319 1811 609 
Q 2009 -100 2413 -844 
z
" transform="scale(0.015625)"/>
        <path id="DejaVuSans-Bold-54" d="M 31 4666 
L 4331 4666 
L 4331 3756 
L 2784 3756 
L 2784 0 
L 1581 0 
L 1581 3756 
L 31 3756 
L 31 4666 
z
" transform="scale(0.015625)"/>
        <path id="DejaVuSans-Bold-65" d="M 4031 1759 
L 4031 1441 
L 1416 1441 
Q 1456 1047 1700 850 
Q 1944 653 2381 653 
Q 2734 653 3104 758 
Q 3475 863 3866 1075 
L 3866 213 
Q 3469 63 3072 -14 
Q 2675 -91 2278 -91 
Q 1328 -91 801 392 
Q 275 875 275 1747 
Q 275 2603 792 3093 
Q 1309 3584 2216 3584 
Q 3041 3584 3536 3087 
Q 4031 2591 4031 1759 
z
M 2881 2131 
Q 2881 2450 2695 2645 
Q 2509 2841 2209 2841 
Q 1884 2841 1681 2658 
Q 1478 2475 1428 2131 
L 2881 2131 
z
" transform="scale(0.015625)"/>
        <path id="DejaVuSans-Bold-72" d="M 3138 2547 
Q 2991 2616 2845 2648 
Q 2700 2681 2553 2681 
Q 2122 2681 1889 2404 
Q 1656 2128 1656 1613 
L 1656 0 
L 538 0 
L 538 3500 
L 1656 3500 
L 1656 2925 
Q 1872 3269 2151 3426 
Q 2431 3584 2822 3584 
Q 2878 3584 2943 3579 
Q 3009 3575 3134 3559 
L 3138 2547 
z
" transform="scale(0.015625)"/>
        <path id="DejaVuSans-Bold-20" transform="scale(0.015625)"/>
        <path id="DejaVuSans-Bold-33" d="M 2981 2516 
Q 3453 2394 3698 2092 
Q 3944 1791 3944 1325 
Q 3944 631 3412 270 
Q 2881 -91 1863 -91 
Q 1503 -91 1142 -33 
Q 781 25 428 141 
L 428 1069 
Q 766 900 1098 814 
Q 1431 728 1753 728 
Q 2231 728 2486 893 
Q 2741 1059 2741 1369 
Q 2741 1688 2480 1852 
Q 2219 2016 1709 2016 
L 1228 2016 
L 1228 2791 
L 1734 2791 
Q 2188 2791 2409 2933 
Q 2631 3075 2631 3366 
Q 2631 3634 2415 3781 
Q 2200 3928 1806 3928 
Q 1516 3928 1219 3862 
Q 922 3797 628 3669 
L 628 4550 
Q 984 4650 1334 4700 
Q 1684 4750 2022 4750 
Q 2931 4750 3382 4451 
Q 3834 4153 3834 3553 
Q 3834 3144 3618 2883 
Q 3403 2622 2981 2516 
z
" transform="scale(0.015625)"/>
        <path id="DejaVuSans-Bold-29" d="M 513 -844 
Q 913 -100 1113 609 
Q 1313 1319 1313 2009 
Q 1313 2700 1113 3408 
Q 913 4116 513 4856 
L 1441 4856 
Q 1916 4091 2145 3389 
Q 2375 2688 2375 2003 
Q 2375 1319 2147 623 
Q 1919 -72 1441 -844 
L 513 -844 
z
" transform="scale(0.015625)"/>
       </defs>
       <use xlink:href="#DejaVuSans-Bold-28"/>
       <use xlink:href="#DejaVuSans-Bold-54" transform="translate(45.703125 0)"/>
       <use xlink:href="#DejaVuSans-Bold-69" transform="translate(113.916016 0)"/>
       <use xlink:href="#DejaVuSans-Bold-65" transform="translate(148.193359 0)"/>
       <use xlink:href="#DejaVuSans-Bold-72" transform="translate(216.015625 0)"/>
       <use xlink:href="#DejaVuSans-Bold-20" transform="translate(265.332031 0)"/>
       <use xlink:href="#DejaVuSans-Bold-33" transform="translate(300.146484 0)"/>
       <use xlink:href="#DejaVuSans-Bold-29" transform="translate(369.726562 0)"/>
      </g>
     </g>
    </g>
    <g id="xtick_2">
     <g id="line2d_2">
      <path d="M 206.617833 314.212 
L 206.617833 69.936 
" clip-path="url(#p47b99018cd)" style="fill: none; stroke: #cccccc; stroke-opacity: 0.3; stroke-linecap: round"/>
     </g>
     <g id="text_2">
      <!-- Medium -->
      <g style="fill: #1a6faf" transform="translate(181.945176 332.070281) scale(0.11 -0.11)">
       <defs>
        <path id="DejaVuSans-Bold-4d" d="M 588 4666 
L 2119 4666 
L 3181 2169 
L 4250 4666 
L 5778 4666 
L 5778 0 
L 4641 0 
L 4641 3413 
L 3566 897 
L 2803 897 
L 1728 3413 
L 1728 0 
L 588 0 
L 588 4666 
z
" transform="scale(0.015625)"/>
        <path id="DejaVuSans-Bold-64" d="M 2919 2988 
L 2919 4863 
L 4044 4863 
L 4044 0 
L 2919 0 
L 2919 506 
Q 2688 197 2409 53 
Q 2131 -91 1766 -91 
Q 1119 -91 703 423 
Q 288 938 288 1747 
Q 288 2556 703 3070 
Q 1119 3584 1766 3584 
Q 2128 3584 2408 3439 
Q 2688 3294 2919 2988 
z
M 2181 722 
Q 2541 722 2730 984 
Q 2919 1247 2919 1747 
Q 2919 2247 2730 2509 
Q 2541 2772 2181 2772 
Q 1825 2772 1636 2509 
Q 1447 2247 1447 1747 
Q 1447 1247 1636 984 
Q 1825 722 2181 722 
z
" transform="scale(0.015625)"/>
        <path id="DejaVuSans-Bold-75" d="M 500 1363 
L 500 3500 
L 1625 3500 
L 1625 3150 
Q 1625 2866 1622 2436 
Q 1619 2006 1619 1863 
Q 1619 1441 1641 1255 
Q 1663 1069 1716 984 
Q 1784 875 1895 815 
Q 2006 756 2150 756 
Q 2500 756 2700 1025 
Q 2900 1294 2900 1772 
L 2900 3500 
L 4019 3500 
L 4019 0 
L 2900 0 
L 2900 506 
Q 2647 200 2364 54 
Q 2081 -91 1741 -91 
Q 1134 -91 817 281 
Q 500 653 500 1363 
z
" transform="scale(0.015625)"/>
        <path id="DejaVuSans-Bold-6d" d="M 3781 2919 
Q 3994 3244 4286 3414 
Q 4578 3584 4928 3584 
Q 5531 3584 5847 3212 
Q 6163 2841 6163 2131 
L 6163 0 
L 5038 0 
L 5038 1825 
Q 5041 1866 5042 1909 
Q 5044 1953 5044 2034 
Q 5044 2406 4934 2573 
Q 4825 2741 4581 2741 
Q 4263 2741 4089 2478 
Q 3916 2216 3909 1719 
L 3909 0 
L 2784 0 
L 2784 1825 
Q 2784 2406 2684 2573 
Q 2584 2741 2328 2741 
Q 2006 2741 1831 2477 
Q 1656 2213 1656 1722 
L 1656 0 
L 531 0 
L 531 3500 
L 1656 3500 
L 1656 2988 
Q 1863 3284 2130 3434 
Q 2397 3584 2719 3584 
Q 3081 3584 3359 3409 
Q 3638 3234 3781 2919 
z
" transform="scale(0.015625)"/>
       </defs>
       <use xlink:href="#DejaVuSans-Bold-4d"/>
       <use xlink:href="#DejaVuSans-Bold-65" transform="translate(99.511719 0)"/>
       <use xlink:href="#DejaVuSans-Bold-64" transform="translate(167.333984 0)"/>
       <use xlink:href="#DejaVuSans-Bold-69" transform="translate(238.916016 0)"/>
       <use xlink:href="#DejaVuSans-Bold-75" transform="translate(273.193359 0)"/>
       <use xlink:href="#DejaVuSans-Bold-6d" transform="translate(344.384766 0)"/>
      </g>
      <!-- (Tier 2) -->
      <g style="fill: #1a6faf" transform="translate(183.76877 344.387875) scale(0.11 -0.11)">
       <defs>
        <path id="DejaVuSans-Bold-32" d="M 1844 884 
L 3897 884 
L 3897 0 
L 506 0 
L 506 884 
L 2209 2388 
Q 2438 2594 2547 2791 
Q 2656 2988 2656 3200 
Q 2656 3528 2436 3728 
Q 2216 3928 1850 3928 
Q 1569 3928 1234 3808 
Q 900 3688 519 3450 
L 519 4475 
Q 925 4609 1322 4679 
Q 1719 4750 2100 4750 
Q 2938 4750 3402 4381 
Q 3866 4013 3866 3353 
Q 3866 2972 3669 2642 
Q 3472 2313 2841 1759 
L 1844 884 
z
" transform="scale(0.015625)"/>
       </defs>
       <use xlink:href="#DejaVuSans-Bold-28"/>
       <use xlink:href="#DejaVuSans-Bold-54" transform="translate(45.703125 0)"/>
       <use xlink:href="#DejaVuSans-Bold-69" transform="translate(113.916016 0)"/>
       <use xlink:href="#DejaVuSans-Bold-65" transform="translate(148.193359 0)"/>
       <use xlink:href="#DejaVuSans-Bold-72" transform="translate(216.015625 0)"/>
       <use xlink:href="#DejaVuSans-Bold-20" transform="translate(265.332031 0)"/>
       <use xlink:href="#DejaVuSans-Bold-32" transform="translate(300.146484 0)"/>
       <use xlink:href="#DejaVuSans-Bold-29" transform="translate(369.726562 0)"/>
      </g>
     </g>
    </g>
    <g id="xtick_3">
     <g id="line2d_3">
      <path d="M 351.812453 314.212 
L 351.812453 69.936 
" clip-path="url(#p47b99018cd)" style="fill: none; stroke: #cccccc; stroke-opacity: 0.3; stroke-linecap: round"/>
     </g>
     <g id="text_3">
      <!-- Low -->
      <g style="fill: #f5c400" transform="translate(339.447766 332.070281) scale(0.11 -0.11)">
       <defs>
        <path id="DejaVuSans-Bold-4c" d="M 588 4666 
L 1791 4666 
L 1791 909 
L 3903 909 
L 3903 0 
L 588 0 
L 588 4666 
z
" transform="scale(0.015625)"/>
        <path id="DejaVuSans-Bold-6f" d="M 2203 2784 
Q 1831 2784 1636 2517 
Q 1441 2250 1441 1747 
Q 1441 1244 1636 976 
Q 1831 709 2203 709 
Q 2569 709 2762 976 
Q 2956 1244 2956 1747 
Q 2956 2250 2762 2517 
Q 2569 2784 2203 2784 
z
M 2203 3584 
Q 3106 3584 3614 3096 
Q 4122 2609 4122 1747 
Q 4122 884 3614 396 
Q 3106 -91 2203 -91 
Q 1297 -91 786 396 
Q 275 884 275 1747 
Q 275 2609 786 3096 
Q 1297 3584 2203 3584 
z
" transform="scale(0.015625)"/>
        <path id="DejaVuSans-Bold-77" d="M 225 3500 
L 1313 3500 
L 1900 1088 
L 2491 3500 
L 3425 3500 
L 4013 1113 
L 4603 3500 
L 5691 3500 
L 4769 0 
L 3547 0 
L 2956 2406 
L 2369 0 
L 1147 0 
L 225 3500 
z
" transform="scale(0.015625)"/>
       </defs>
       <use xlink:href="#DejaVuSans-Bold-4c"/>
       <use xlink:href="#DejaVuSans-Bold-6f" transform="translate(63.720703 0)"/>
       <use xlink:href="#DejaVuSans-Bold-77" transform="translate(132.421875 0)"/>
      </g>
      <!-- (Tier 1) -->
      <g style="fill: #f5c400" transform="translate(328.963391 344.387875) scale(0.11 -0.11)">
       <defs>
        <path id="DejaVuSans-Bold-31" d="M 750 831 
L 1813 831 
L 1813 3847 
L 722 3622 
L 722 4441 
L 1806 4666 
L 2950 4666 
L 2950 831 
L 4013 831 
L 4013 0 
L 750 0 
L 750 831 
z
" transform="scale(0.015625)"/>
       </defs>
       <use xlink:href="#DejaVuSans-Bold-28"/>
       <use xlink:href="#DejaVuSans-Bold-54" transform="translate(45.703125 0)"/>
       <use xlink:href="#DejaVuSans-Bold-69" transform="translate(113.916016 0)"/>
       <use xlink:href="#DejaVuSans-Bold-65" transform="translate(148.193359 0)"/>
       <use xlink:href="#DejaVuSans-Bold-72" transform="translate(216.015625 0)"/>
       <use xlink:href="#DejaVuSans-Bold-20" transform="translate(265.332031 0)"/>
       <use xlink:href="#DejaVuSans-Bold-31" transform="translate(300.146484 0)"/>
       <use xlink:href="#DejaVuSans-Bold-29" transform="translate(369.726562 0)"/>
      </g>
     </g>
    </g>
   </g>
   <g id="matplotlib.axis_2">
    <g id="ytick_1">
     <g id="line2d_4">
      <path d="M 46.90375 288.59747 
L 366.331915 288.59747 
" clip-path="url(#p47b99018cd)" style="fill: none; stroke: #cccccc; stroke-opacity: 0.3; stroke-linecap: round"/>
     </g>
     <g id="text_4">
      <!-- 0.0 -->
      <g style="fill: #262626" transform="translate(19.910313 292.776611) scale(0.11 -0.11)">
       <defs>
        <path id="DejaVuSans-30" d="M 2034 4250 
Q 1547 4250 1301 3770 
Q 1056 3291 1056 2328 
Q 1056 1369 1301 889 
Q 1547 409 2034 409 
Q 2525 409 2770 889 
Q 3016 1369 3016 2328 
Q 3016 3291 2770 3770 
Q 2525 4250 2034 4250 
z
M 2034 4750 
Q 2819 4750 3233 4129 
Q 3647 3509 3647 2328 
Q 3647 1150 3233 529 
Q 2819 -91 2034 -91 
Q 1250 -91 836 529 
Q 422 1150 422 2328 
Q 422 3509 836 4129 
Q 1250 4750 2034 4750 
z
" transform="scale(0.015625)"/>
        <path id="DejaVuSans-2e" d="M 684 794 
L 1344 794 
L 1344 0 
L 684 0 
L 684 794 
z
" transform="scale(0.015625)"/>
       </defs>
       <use xlink:href="#DejaVuSans-30"/>
       <use xlink:href="#DejaVuSans-2e" transform="translate(63.623047 0)"/>
       <use xlink:href="#DejaVuSans-30" transform="translate(95.410156 0)"/>
      </g>
     </g>
    </g>
    <g id="ytick_2">
     <g id="line2d_5">
      <path d="M 46.90375 249.298466 
L 366.331915 249.298466 
" clip-path="url(#p47b99018cd)" style="fill: none; stroke: #cccccc; stroke-opacity: 0.3; stroke-linecap: round"/>
     </g>
     <g id="text_5">
      <!-- 0.1 -->
      <g style="fill: #262626" transform="translate(19.910313 253.477606) scale(0.11 -0.11)">
       <defs>
        <path id="DejaVuSans-31" d="M 794 531 
L 1825 531 
L 1825 4091 
L 703 3866 
L 703 4441 
L 1819 4666 
L 2450 4666 
L 2450 531 
L 3481 531 
L 3481 0 
L 794 0 
L 794 531 
z
" transform="scale(0.015625)"/>
       </defs>
       <use xlink:href="#DejaVuSans-30"/>
       <use xlink:href="#DejaVuSans-2e" transform="translate(63.623047 0)"/>
       <use xlink:href="#DejaVuSans-31" transform="translate(95.410156 0)"/>
      </g>
     </g>
    </g>
    <g id="ytick_3">
     <g id="line2d_6">
      <path d="M 46.90375 209.999462 
L 366.331915 209.999462 
" clip-path="url(#p47b99018cd)" style="fill: none; stroke: #cccccc; stroke-opacity: 0.3; stroke-linecap: round"/>
     </g>
     <g id="text_6">
      <!-- 0.2 -->
      <g style="fill: #262626" transform="translate(19.910313 214.178602) scale(0.11 -0.11)">
       <defs>
        <path id="DejaVuSans-32" d="M 1228 531 
L 3431 531 
L 3431 0 
L 469 0 
L 469 531 
Q 828 903 1448 1529 
Q 2069 2156 2228 2338 
Q 2531 2678 2651 2914 
Q 2772 3150 2772 3378 
Q 2772 3750 2511 3984 
Q 2250 4219 1831 4219 
Q 1534 4219 1204 4116 
Q 875 4013 500 3803 
L 500 4441 
Q 881 4594 1212 4672 
Q 1544 4750 1819 4750 
Q 2544 4750 2975 4387 
Q 3406 4025 3406 3419 
Q 3406 3131 3298 2873 
Q 3191 2616 2906 2266 
Q 2828 2175 2409 1742 
Q 1991 1309 1228 531 
z
" transform="scale(0.015625)"/>
       </defs>
       <use xlink:href="#DejaVuSans-30"/>
       <use xlink:href="#DejaVuSans-2e" transform="translate(63.623047 0)"/>
       <use xlink:href="#DejaVuSans-32" transform="translate(95.410156 0)"/>
      </g>
     </g>
    </g>
    <g id="ytick_4">
     <g id="line2d_7">
      <path d="M 46.90375 170.700458 
L 366.331915 170.700458 
" clip-path="url(#p47b99018cd)" style="fill: none; stroke: #cccccc; stroke-opacity: 0.3; stroke-linecap: round"/>
     </g>
     <g id="text_7">
      <!-- 0.3 -->
      <g style="fill: #262626" transform="translate(19.910313 174.879598) scale(0.11 -0.11)">
       <defs>
        <path id="DejaVuSans-33" d="M 2597 2516 
Q 3050 2419 3304 2112 
Q 3559 1806 3559 1356 
Q 3559 666 3084 287 
Q 2609 -91 1734 -91 
Q 1441 -91 1130 -33 
Q 819 25 488 141 
L 488 750 
Q 750 597 1062 519 
Q 1375 441 1716 441 
Q 2309 441 2620 675 
Q 2931 909 2931 1356 
Q 2931 1769 2642 2001 
Q 2353 2234 1838 2234 
L 1294 2234 
L 1294 2753 
L 1863 2753 
Q 2328 2753 2575 2939 
Q 2822 3125 2822 3475 
Q 2822 3834 2567 4026 
Q 2313 4219 1838 4219 
Q 1578 4219 1281 4162 
Q 984 4106 628 3988 
L 628 4550 
Q 988 4650 1302 4700 
Q 1616 4750 1894 4750 
Q 2613 4750 3031 4423 
Q 3450 4097 3450 3541 
Q 3450 3153 3228 2886 
Q 3006 2619 2597 2516 
z
" transform="scale(0.015625)"/>
       </defs>
       <use xlink:href="#DejaVuSans-30"/>
       <use xlink:href="#DejaVuSans-2e" transform="translate(63.623047 0)"/>
       <use xlink:href="#DejaVuSans-33" transform="translate(95.410156 0)"/>
      </g>
     </g>
    </g>
    <g id="ytick_5">
     <g id="line2d_8">
      <path d="M 46.90375 131.401454 
L 366.331915 131.401454 
" clip-path="url(#p47b99018cd)" style="fill: none; stroke: #cccccc; stroke-opacity: 0.3; stroke-linecap: round"/>
     </g>
     <g id="text_8">
      <!-- 0.4 -->
      <g style="fill: #262626" transform="translate(19.910313 135.580594) scale(0.11 -0.11)">
       <defs>
        <path id="DejaVuSans-34" d="M 2419 4116 
L 825 1625 
L 2419 1625 
L 2419 4116 
z
M 2253 4666 
L 3047 4666 
L 3047 1625 
L 3713 1625 
L 3713 1100 
L 3047 1100 
L 3047 0 
L 2419 0 
L 2419 1100 
L 313 1100 
L 313 1709 
L 2253 4666 
z
" transform="scale(0.015625)"/>
       </defs>
       <use xlink:href="#DejaVuSans-30"/>
       <use xlink:href="#DejaVuSans-2e" transform="translate(63.623047 0)"/>
       <use xlink:href="#DejaVuSans-34" transform="translate(95.410156 0)"/>
      </g>
     </g>
    </g>
    <g id="ytick_6">
     <g id="line2d_9">
      <path d="M 46.90375 92.10245 
L 366.331915 92.10245 
" clip-path="url(#p47b99018cd)" style="fill: none; stroke: #cccccc; stroke-opacity: 0.3; stroke-linecap: round"/>
     </g>
     <g id="text_9">
      <!-- 0.5 -->
      <g style="fill: #262626" transform="translate(19.910313 96.28159) scale(0.11 -0.11)">
       <defs>
        <path id="DejaVuSans-35" d="M 691 4666 
L 3169 4666 
L 3169 4134 
L 1269 4134 
L 1269 2991 
Q 1406 3038 1543 3061 
Q 1681 3084 1819 3084 
Q 2600 3084 3056 2656 
Q 3513 2228 3513 1497 
Q 3513 744 3044 326 
Q 2575 -91 1722 -91 
Q 1428 -91 1123 -41 
Q 819 9 494 109 
L 494 744 
Q 775 591 1075 516 
Q 1375 441 1709 441 
Q 2250 441 2565 725 
Q 2881 1009 2881 1497 
Q 2881 1984 2565 2268 
Q 2250 2553 1709 2553 
Q 1456 2553 1204 2497 
Q 953 2441 691 2322 
L 691 4666 
z
" transform="scale(0.015625)"/>
       </defs>
       <use xlink:href="#DejaVuSans-30"/>
       <use xlink:href="#DejaVuSans-2e" transform="translate(63.623047 0)"/>
       <use xlink:href="#DejaVuSans-35" transform="translate(95.410156 0)"/>
      </g>
     </g>
    </g>
    <g id="text_10">
     <!-- Skill vs ARIMA  (1 − MAE/MAE$_{ARIMA}$) -->
     <g style="fill: #262626" transform="translate(14.038594 270.959) rotate(-90) scale(0.09 -0.09)">
      <defs>
       <path id="DejaVuSans-53" d="M 3425 4513 
L 3425 3897 
Q 3066 4069 2747 4153 
Q 2428 4238 2131 4238 
Q 1616 4238 1336 4038 
Q 1056 3838 1056 3469 
Q 1056 3159 1242 3001 
Q 1428 2844 1947 2747 
L 2328 2669 
Q 3034 2534 3370 2195 
Q 3706 1856 3706 1288 
Q 3706 609 3251 259 
Q 2797 -91 1919 -91 
Q 1588 -91 1214 -16 
Q 841 59 441 206 
L 441 856 
Q 825 641 1194 531 
Q 1563 422 1919 422 
Q 2459 422 2753 634 
Q 3047 847 3047 1241 
Q 3047 1584 2836 1778 
Q 2625 1972 2144 2069 
L 1759 2144 
Q 1053 2284 737 2584 
Q 422 2884 422 3419 
Q 422 4038 858 4394 
Q 1294 4750 2059 4750 
Q 2388 4750 2728 4690 
Q 3069 4631 3425 4513 
z
" transform="scale(0.015625)"/>
       <path id="DejaVuSans-6b" d="M 581 4863 
L 1159 4863 
L 1159 1991 
L 2875 3500 
L 3609 3500 
L 1753 1863 
L 3688 0 
L 2938 0 
L 1159 1709 
L 1159 0 
L 581 0 
L 581 4863 
z
" transform="scale(0.015625)"/>
       <path id="DejaVuSans-69" d="M 603 3500 
L 1178 3500 
L 1178 0 
L 603 0 
L 603 3500 
z
M 603 4863 
L 1178 4863 
L 1178 4134 
L 603 4134 
L 603 4863 
z
" transform="scale(0.015625)"/>
       <path id="DejaVuSans-6c" d="M 603 4863 
L 1178 4863 
L 1178 0 
L 603 0 
L 603 4863 
z
" transform="scale(0.015625)"/>
       <path id="DejaVuSans-20" transform="scale(0.015625)"/>
       <path id="DejaVuSans-76" d="M 191 3500 
L 800 3500 
L 1894 563 
L 2988 3500 
L 3597 3500 
L 2284 0 
L 1503 0 
L 191 3500 
z
" transform="scale(0.015625)"/>
       <path id="DejaVuSans-73" d="M 2834 3397 
L 2834 2853 
Q 2591 2978 2328 3040 
Q 2066 3103 1784 3103 
Q 1356 3103 1142 2972 
Q 928 2841 928 2578 
Q 928 2378 1081 2264 
Q 1234 2150 1697 2047 
L 1894 2003 
Q 2506 1872 2764 1633 
Q 3022 1394 3022 966 
Q 3022 478 2636 193 
Q 2250 -91 1575 -91 
Q 1294 -91 989 -36 
Q 684 19 347 128 
L 347 722 
Q 666 556 975 473 
Q 1284 391 1588 391 
Q 1994 391 2212 530 
Q 2431 669 2431 922 
Q 2431 1156 2273 1281 
Q 2116 1406 1581 1522 
L 1381 1569 
Q 847 1681 609 1914 
Q 372 2147 372 2553 
Q 372 3047 722 3315 
Q 1072 3584 1716 3584 
Q 2034 3584 2315 3537 
Q 2597 3491 2834 3397 
z
" transform="scale(0.015625)"/>
       <path id="DejaVuSans-41" d="M 2188 4044 
L 1331 1722 
L 3047 1722 
L 2188 4044 
z
M 1831 4666 
L 2547 4666 
L 4325 0 
L 3669 0 
L 3244 1197 
L 1141 1197 
L 716 0 
L 50 0 
L 1831 4666 
z
" transform="scale(0.015625)"/>
       <path id="DejaVuSans-52" d="M 2841 2188 
Q 3044 2119 3236 1894 
Q 3428 1669 3622 1275 
L 4263 0 
L 3584 0 
L 2988 1197 
Q 2756 1666 2539 1819 
Q 2322 1972 1947 1972 
L 1259 1972 
L 1259 0 
L 628 0 
L 628 4666 
L 2053 4666 
Q 2853 4666 3247 4331 
Q 3641 3997 3641 3322 
Q 3641 2881 3436 2590 
Q 3231 2300 2841 2188 
z
M 1259 4147 
L 1259 2491 
L 2053 2491 
Q 2509 2491 2742 2702 
Q 2975 2913 2975 3322 
Q 2975 3731 2742 3939 
Q 2509 4147 2053 4147 
L 1259 4147 
z
" transform="scale(0.015625)"/>
       <path id="DejaVuSans-49" d="M 628 4666 
L 1259 4666 
L 1259 0 
L 628 0 
L 628 4666 
z
" transform="scale(0.015625)"/>
       <path id="DejaVuSans-4d" d="M 628 4666 
L 1569 4666 
L 2759 1491 
L 3956 4666 
L 4897 4666 
L 4897 0 
L 4281 0 
L 4281 4097 
L 3078 897 
L 2444 897 
L 1241 4097 
L 1241 0 
L 628 0 
L 628 4666 
z
" transform="scale(0.015625)"/>
       <path id="DejaVuSans-28" d="M 1984 4856 
Q 1566 4138 1362 3434 
Q 1159 2731 1159 2009 
Q 1159 1288 1364 580 
Q 1569 -128 1984 -844 
L 1484 -844 
Q 1016 -109 783 600 
Q 550 1309 550 2009 
Q 550 2706 781 3412 
Q 1013 4119 1484 4856 
L 1984 4856 
z
" transform="scale(0.015625)"/>
       <path id="DejaVuSans-2212" d="M 678 2272 
L 4684 2272 
L 4684 1741 
L 678 1741 
L 678 2272 
z
" transform="scale(0.015625)"/>
       <path id="DejaVuSans-45" d="M 628 4666 
L 3578 4666 
L 3578 4134 
L 1259 4134 
L 1259 2753 
L 3481 2753 
L 3481 2222 
L 1259 2222 
L 1259 531 
L 3634 531 
L 3634 0 
L 628 0 
L 628 4666 
z
" transform="scale(0.015625)"/>
       <path id="DejaVuSans-2f" d="M 1625 4666 
L 2156 4666 
L 531 -594 
L 0 -594 
L 1625 4666 
z
" transform="scale(0.015625)"/>
       <path id="DejaVuSans-Oblique-41" d="M 2356 4666 
L 3072 4666 
L 3938 0 
L 3278 0 
L 3084 1197 
L 984 1197 
L 325 0 
L -341 0 
L 2356 4666 
z
M 2584 4044 
L 1275 1722 
L 2988 1722 
L 2584 4044 
z
" transform="scale(0.015625)"/>
       <path id="DejaVuSans-Oblique-52" d="M 1613 4147 
L 1294 2491 
L 2106 2491 
Q 2584 2491 2879 2755 
Q 3175 3019 3175 3444 
Q 3175 3784 2976 3965 
Q 2778 4147 2406 4147 
L 1613 4147 
z
M 2772 2241 
Q 2972 2194 3105 2009 
Q 3238 1825 3413 1275 
L 3809 0 
L 3144 0 
L 2778 1197 
Q 2638 1659 2453 1815 
Q 2269 1972 1888 1972 
L 1191 1972 
L 806 0 
L 172 0 
L 1081 4666 
L 2503 4666 
Q 3150 4666 3495 4373 
Q 3841 4081 3841 3531 
Q 3841 3044 3547 2687 
Q 3253 2331 2772 2241 
z
" transform="scale(0.015625)"/>
       <path id="DejaVuSans-Oblique-49" d="M 1081 4666 
L 1716 4666 
L 806 0 
L 172 0 
L 1081 4666 
z
" transform="scale(0.015625)"/>
       <path id="DejaVuSans-Oblique-4d" d="M 1081 4666 
L 2028 4666 
L 2572 1522 
L 4378 4666 
L 5350 4666 
L 4441 0 
L 3828 0 
L 4622 4091 
L 2791 897 
L 2175 897 
L 1581 4103 
L 788 0 
L 172 0 
L 1081 4666 
z
" transform="scale(0.015625)"/>
       <path id="DejaVuSans-29" d="M 513 4856 
L 1013 4856 
Q 1481 4119 1714 3412 
Q 1947 2706 1947 2009 
Q 1947 1309 1714 600 
Q 1481 -109 1013 -844 
L 513 -844 
Q 928 -128 1133 580 
Q 1338 1288 1338 2009 
Q 1338 2731 1133 3434 
Q 928 4138 513 4856 
z
" transform="scale(0.015625)"/>
      </defs>
      <use xlink:href="#DejaVuSans-53" transform="translate(0 0.015625)"/>
      <use xlink:href="#DejaVuSans-6b" transform="translate(63.476562 0.015625)"/>
      <use xlink:href="#DejaVuSans-69" transform="translate(121.386719 0.015625)"/>
      <use xlink:href="#DejaVuSans-6c" transform="translate(149.169922 0.015625)"/>
      <use xlink:href="#DejaVuSans-6c" transform="translate(176.953125 0.015625)"/>
      <use xlink:href="#DejaVuSans-20" transform="translate(204.736328 0.015625)"/>
      <use xlink:href="#DejaVuSans-76" transform="translate(236.523438 0.015625)"/>
      <use xlink:href="#DejaVuSans-73" transform="translate(295.703125 0.015625)"/>
      <use xlink:href="#DejaVuSans-20" transform="translate(347.802734 0.015625)"/>
      <use xlink:href="#DejaVuSans-41" transform="translate(379.589844 0.015625)"/>
      <use xlink:href="#DejaVuSans-52" transform="translate(447.998047 0.015625)"/>
      <use xlink:href="#DejaVuSans-49" transform="translate(517.480469 0.015625)"/>
      <use xlink:href="#DejaVuSans-4d" transform="translate(546.972656 0.015625)"/>
      <use xlink:href="#DejaVuSans-41" transform="translate(633.251953 0.015625)"/>
      <use xlink:href="#DejaVuSans-20" transform="translate(701.660156 0.015625)"/>
      <use xlink:href="#DejaVuSans-20" transform="translate(733.447266 0.015625)"/>
      <use xlink:href="#DejaVuSans-28" transform="translate(765.234375 0.015625)"/>
      <use xlink:href="#DejaVuSans-31" transform="translate(804.248047 0.015625)"/>
      <use xlink:href="#DejaVuSans-20" transform="translate(867.871094 0.015625)"/>
      <use xlink:href="#DejaVuSans-2212" transform="translate(899.658203 0.015625)"/>
      <use xlink:href="#DejaVuSans-20" transform="translate(983.447266 0.015625)"/>
      <use xlink:href="#DejaVuSans-4d" transform="translate(1015.234375 0.015625)"/>
      <use xlink:href="#DejaVuSans-41" transform="translate(1101.513672 0.015625)"/>
      <use xlink:href="#DejaVuSans-45" transform="translate(1169.921875 0.015625)"/>
      <use xlink:href="#DejaVuSans-2f" transform="translate(1233.105469 0.015625)"/>
      <use xlink:href="#DejaVuSans-4d" transform="translate(1266.796875 0.015625)"/>
      <use xlink:href="#DejaVuSans-41" transform="translate(1353.076172 0.015625)"/>
      <use xlink:href="#DejaVuSans-45" transform="translate(1421.484375 0.015625)"/>
      <use xlink:href="#DejaVuSans-Oblique-41" transform="translate(1485.625 -16.390625) scale(0.7)"/>
      <use xlink:href="#DejaVuSans-Oblique-52" transform="translate(1533.510742 -16.390625) scale(0.7)"/>
      <use xlink:href="#DejaVuSans-Oblique-49" transform="translate(1582.148438 -16.390625) scale(0.7)"/>
      <use xlink:href="#DejaVuSans-Oblique-4d" transform="translate(1602.792969 -16.390625) scale(0.7)"/>
      <use xlink:href="#DejaVuSans-Oblique-41" transform="translate(1663.188477 -16.390625) scale(0.7)"/>
      <use xlink:href="#DejaVuSans-29" transform="translate(1713.808594 0.015625)"/>
     </g>
    </g>
   </g>
   <g id="line2d_10">
    <path d="M 61.423212 275.187214 
L 206.617833 271.804269 
L 351.812453 228.249071 
" clip-path="url(#p47b99018cd)" style="fill: none; stroke: #4c72b0; stroke-opacity: 0.85; stroke-width: 1.6; stroke-linecap: round"/>
    <defs>
     <path id="m91247236bd" d="M 0 3 
C 0.795609 3 1.55874 2.683901 2.12132 2.12132 
C 2.683901 1.55874 3 0.795609 3 0 
C 3 -0.795609 2.683901 -1.55874 2.12132 -2.12132 
C 1.55874 -2.683901 0.795609 -3 0 -3 
C -0.795609 -3 -1.55874 -2.683901 -2.12132 -2.12132 
C -2.683901 -1.55874 -3 -0.795609 -3 0 
C -3 0.795609 -2.683901 1.55874 -2.12132 2.12132 
C -1.55874 2.683901 -0.795609 3 0 3 
z
" style="stroke: #4c72b0; stroke-opacity: 0.85"/>
    </defs>
    <g clip-path="url(#p47b99018cd)">
     <use xlink:href="#m91247236bd" x="61.423212" y="275.187214" style="fill: #4c72b0; fill-opacity: 0.85; stroke: #4c72b0; stroke-opacity: 0.85"/>
     <use xlink:href="#m91247236bd" x="206.617833" y="271.804269" style="fill: #4c72b0; fill-opacity: 0.85; stroke: #4c72b0; stroke-opacity: 0.85"/>
     <use xlink:href="#m91247236bd" x="351.812453" y="228.249071" style="fill: #4c72b0; fill-opacity: 0.85; stroke: #4c72b0; stroke-opacity: 0.85"/>
    </g>
   </g>
   <g id="line2d_11">
    <path d="M 61.423212 269.005291 
L 206.617833 158.847407 
L 351.812453 81.039455 
" clip-path="url(#p47b99018cd)" style="fill: none; stroke: #dd8452; stroke-opacity: 0.85; stroke-width: 1.6; stroke-linecap: round"/>
    <defs>
     <path id="m9132a257ad" d="M 0 3 
C 0.795609 3 1.55874 2.683901 2.12132 2.12132 
C 2.683901 1.55874 3 0.795609 3 0 
C 3 -0.795609 2.683901 -1.55874 2.12132 -2.12132 
C 1.55874 -2.683901 0.795609 -3 0 -3 
C -0.795609 -3 -1.55874 -2.683901 -2.12132 -2.12132 
C -2.683901 -1.55874 -3 -0.795609 -3 0 
C -3 0.795609 -2.683901 1.55874 -2.12132 2.12132 
C -1.55874 2.683901 -0.795609 3 0 3 
z
" style="stroke: #dd8452; stroke-opacity: 0.85"/>
    </defs>
    <g clip-path="url(#p47b99018cd)">
     <use xlink:href="#m9132a257ad" x="61.423212" y="269.005291" style="fill: #dd8452; fill-opacity: 0.85; stroke: #dd8452; stroke-opacity: 0.85"/>
     <use xlink:href="#m9132a257ad" x="206.617833" y="158.847407" style="fill: #dd8452; fill-opacity: 0.85; stroke: #dd8452; stroke-opacity: 0.85"/>
     <use xlink:href="#m9132a257ad" x="351.812453" y="81.039455" style="fill: #dd8452; fill-opacity: 0.85; stroke: #dd8452; stroke-opacity: 0.85"/>
    </g>
   </g>
   <g id="line2d_12">
    <path d="M 61.423212 286.807463 
L 206.617833 263.432672 
L 351.812453 303.108545 
" clip-path="url(#p47b99018cd)" style="fill: none; stroke: #55a868; stroke-opacity: 0.85; stroke-width: 1.6; stroke-linecap: round"/>
    <defs>
     <path id="m3326c96c16" d="M 0 3 
C 0.795609 3 1.55874 2.683901 2.12132 2.12132 
C 2.683901 1.55874 3 0.795609 3 0 
C 3 -0.795609 2.683901 -1.55874 2.12132 -2.12132 
C 1.55874 -2.683901 0.795609 -3 0 -3 
C -0.795609 -3 -1.55874 -2.683901 -2.12132 -2.12132 
C -2.683901 -1.55874 -3 -0.795609 -3 0 
C -3 0.795609 -2.683901 1.55874 -2.12132 2.12132 
C -1.55874 2.683901 -0.795609 3 0 3 
z
" style="stroke: #55a868; stroke-opacity: 0.85"/>
    </defs>
    <g clip-path="url(#p47b99018cd)">
     <use xlink:href="#m3326c96c16" x="61.423212" y="286.807463" style="fill: #55a868; fill-opacity: 0.85; stroke: #55a868; stroke-opacity: 0.85"/>
     <use xlink:href="#m3326c96c16" x="206.617833" y="263.432672" style="fill: #55a868; fill-opacity: 0.85; stroke: #55a868; stroke-opacity: 0.85"/>
     <use xlink:href="#m3326c96c16" x="351.812453" y="303.108545" style="fill: #55a868; fill-opacity: 0.85; stroke: #55a868; stroke-opacity: 0.85"/>
    </g>
   </g>
   <g id="line2d_13">
    <path d="M 61.423212 273.474081 
L 206.617833 288.701512 
L 351.812453 290.813312 
" clip-path="url(#p47b99018cd)" style="fill: none; stroke: #c44e52; stroke-opacity: 0.85; stroke-width: 1.6; stroke-linecap: round"/>
    <defs>
     <path id="md602e5efbd" d="M 0 3 
C 0.795609 3 1.55874 2.683901 2.12132 2.12132 
C 2.683901 1.55874 3 0.795609 3 0 
C 3 -0.795609 2.683901 -1.55874 2.12132 -2.12132 
C 1.55874 -2.683901 0.795609 -3 0 -3 
C -0.795609 -3 -1.55874 -2.683901 -2.12132 -2.12132 
C -2.683901 -1.55874 -3 -0.795609 -3 0 
C -3 0.795609 -2.683901 1.55874 -2.12132 2.12132 
C -1.55874 2.683901 -0.795609 3 0 3 
z
" style="stroke: #c44e52; stroke-opacity: 0.85"/>
    </defs>
    <g clip-path="url(#p47b99018cd)">
     <use xlink:href="#md602e5efbd" x="61.423212" y="273.474081" style="fill: #c44e52; fill-opacity: 0.85; stroke: #c44e52; stroke-opacity: 0.85"/>
     <use xlink:href="#md602e5efbd" x="206.617833" y="288.701512" style="fill: #c44e52; fill-opacity: 0.85; stroke: #c44e52; stroke-opacity: 0.85"/>
     <use xlink:href="#md602e5efbd" x="351.812453" y="290.813312" style="fill: #c44e52; fill-opacity: 0.85; stroke: #c44e52; stroke-opacity: 0.85"/>
    </g>
   </g>
   <g id="line2d_14">
    <path d="M 61.423212 285.471424 
L 206.617833 229.959936 
L 351.812453 215.744238 
" clip-path="url(#p47b99018cd)" style="fill: none; stroke: #8172b3; stroke-opacity: 0.85; stroke-width: 1.6; stroke-linecap: round"/>
    <defs>
     <path id="m68af87818c" d="M 0 3 
C 0.795609 3 1.55874 2.683901 2.12132 2.12132 
C 2.683901 1.55874 3 0.795609 3 0 
C 3 -0.795609 2.683901 -1.55874 2.12132 -2.12132 
C 1.55874 -2.683901 0.795609 -3 0 -3 
C -0.795609 -3 -1.55874 -2.683901 -2.12132 -2.12132 
C -2.683901 -1.55874 -3 -0.795609 -3 0 
C -3 0.795609 -2.683901 1.55874 -2.12132 2.12132 
C -1.55874 2.683901 -0.795609 3 0 3 
z
" style="stroke: #8172b3; stroke-opacity: 0.85"/>
    </defs>
    <g clip-path="url(#p47b99018cd)">
     <use xlink:href="#m68af87818c" x="61.423212" y="285.471424" style="fill: #8172b3; fill-opacity: 0.85; stroke: #8172b3; stroke-opacity: 0.85"/>
     <use xlink:href="#m68af87818c" x="206.617833" y="229.959936" style="fill: #8172b3; fill-opacity: 0.85; stroke: #8172b3; stroke-opacity: 0.85"/>
     <use xlink:href="#m68af87818c" x="351.812453" y="215.744238" style="fill: #8172b3; fill-opacity: 0.85; stroke: #8172b3; stroke-opacity: 0.85"/>
    </g>
   </g>
   <g id="line2d_15">
    <path d="M 61.423212 277.989095 
L 206.617833 242.549159 
L 351.812453 223.790924 
" clip-path="url(#p47b99018cd)" style="fill: none; stroke: #000000; stroke-width: 3; stroke-linecap: round"/>
    <defs>
     <path id="m6fea578623" d="M -3 3 
L 3 3 
L 3 -3 
L -3 -3 
z
" style="stroke: #000000; stroke-linejoin: miter"/>
    </defs>
    <g clip-path="url(#p47b99018cd)">
     <use xlink:href="#m6fea578623" x="61.423212" y="277.989095" style="stroke: #000000; stroke-linejoin: miter"/>
     <use xlink:href="#m6fea578623" x="206.617833" y="242.549159" style="stroke: #000000; stroke-linejoin: miter"/>
     <use xlink:href="#m6fea578623" x="351.812453" y="223.790924" style="stroke: #000000; stroke-linejoin: miter"/>
    </g>
   </g>
   <g id="line2d_16">
    <path d="M 46.90375 288.59747 
L 366.331915 288.59747 
" clip-path="url(#p47b99018cd)" style="fill: none; stroke-dasharray: 4.44,1.92; stroke-dashoffset: 0; stroke: #dc143c; stroke-width: 1.2"/>
   </g>
   <g id="patch_3">
    <path d="M 46.90375 314.212 
L 46.90375 69.936 
" style="fill: none; stroke: #cccccc; stroke-width: 1.25; stroke-linejoin: miter; stroke-linecap: square"/>
   </g>
   <g id="patch_4">
    <path d="M 366.331915 314.212 
L 366.331915 69.936 
" style="fill: none; stroke: #cccccc; stroke-width: 1.25; stroke-linejoin: miter; stroke-linecap: square"/>
   </g>
   <g id="patch_5">
    <path d="M 46.90375 314.212 
L 366.331915 314.212 
" style="fill: none; stroke: #cccccc; stroke-width: 1.25; stroke-linejoin: miter; stroke-linecap: square"/>
   </g>
   <g id="patch_6">
    <path d="M 46.90375 69.936 
L 366.331915 69.936 
" style="fill: none; stroke: #cccccc; stroke-width: 1.25; stroke-linejoin: miter; stroke-linecap: square"/>
   </g>
   <g id="text_11">
    <!-- ARIMA parity -->
    <g style="fill: #dc143c" transform="translate(303.043846 285.75475) scale(0.08 -0.08)">
     <defs>
      <path id="DejaVuSans-70" d="M 1159 525 
L 1159 -1331 
L 581 -1331 
L 581 3500 
L 1159 3500 
L 1159 2969 
Q 1341 3281 1617 3432 
Q 1894 3584 2278 3584 
Q 2916 3584 3314 3078 
Q 3713 2572 3713 1747 
Q 3713 922 3314 415 
Q 2916 -91 2278 -91 
Q 1894 -91 1617 61 
Q 1341 213 1159 525 
z
M 3116 1747 
Q 3116 2381 2855 2742 
Q 2594 3103 2138 3103 
Q 1681 3103 1420 2742 
Q 1159 2381 1159 1747 
Q 1159 1113 1420 752 
Q 1681 391 2138 391 
Q 2594 391 2855 752 
Q 3116 1113 3116 1747 
z
" transform="scale(0.015625)"/>
      <path id="DejaVuSans-61" d="M 2194 1759 
Q 1497 1759 1228 1600 
Q 959 1441 959 1056 
Q 959 750 1161 570 
Q 1363 391 1709 391 
Q 2188 391 2477 730 
Q 2766 1069 2766 1631 
L 2766 1759 
L 2194 1759 
z
M 3341 1997 
L 3341 0 
L 2766 0 
L 2766 531 
Q 2569 213 2275 61 
Q 1981 -91 1556 -91 
Q 1019 -91 701 211 
Q 384 513 384 1019 
Q 384 1609 779 1909 
Q 1175 2209 1959 2209 
L 2766 2209 
L 2766 2266 
Q 2766 2663 2505 2880 
Q 2244 3097 1772 3097 
Q 1472 3097 1187 3025 
Q 903 2953 641 2809 
L 641 3341 
Q 956 3463 1253 3523 
Q 1550 3584 1831 3584 
Q 2591 3584 2966 3190 
Q 3341 2797 3341 1997 
z
" transform="scale(0.015625)"/>
      <path id="DejaVuSans-72" d="M 2631 2963 
Q 2534 3019 2420 3045 
Q 2306 3072 2169 3072 
Q 1681 3072 1420 2755 
Q 1159 2438 1159 1844 
L 1159 0 
L 581 0 
L 581 3500 
L 1159 3500 
L 1159 2956 
Q 1341 3275 1631 3429 
Q 1922 3584 2338 3584 
Q 2397 3584 2469 3576 
Q 2541 3569 2628 3553 
L 2631 2963 
z
" transform="scale(0.015625)"/>
      <path id="DejaVuSans-74" d="M 1172 4494 
L 1172 3500 
L 2356 3500 
L 2356 3053 
L 1172 3053 
L 1172 1153 
Q 1172 725 1289 603 
Q 1406 481 1766 481 
L 2356 481 
L 2356 0 
L 1766 0 
Q 1100 0 847 248 
Q 594 497 594 1153 
L 594 3053 
L 172 3053 
L 172 3500 
L 594 3500 
L 594 4494 
L 1172 4494 
z
" transform="scale(0.015625)"/>
      <path id="DejaVuSans-79" d="M 2059 -325 
Q 1816 -950 1584 -1140 
Q 1353 -1331 966 -1331 
L 506 -1331 
L 506 -850 
L 844 -850 
Q 1081 -850 1212 -737 
Q 1344 -625 1503 -206 
L 1606 56 
L 191 3500 
L 800 3500 
L 1894 763 
L 2988 3500 
L 3597 3500 
L 2059 -325 
z
" transform="scale(0.015625)"/>
     </defs>
     <use xlink:href="#DejaVuSans-41"/>
     <use xlink:href="#DejaVuSans-52" transform="translate(68.408203 0)"/>
     <use xlink:href="#DejaVuSans-49" transform="translate(137.890625 0)"/>
     <use xlink:href="#DejaVuSans-4d" transform="translate(167.382812 0)"/>
     <use xlink:href="#DejaVuSans-41" transform="translate(253.662109 0)"/>
     <use xlink:href="#DejaVuSans-20" transform="translate(322.070312 0)"/>
     <use xlink:href="#DejaVuSans-70" transform="translate(353.857422 0)"/>
     <use xlink:href="#DejaVuSans-61" transform="translate(417.333984 0)"/>
     <use xlink:href="#DejaVuSans-72" transform="translate(478.613281 0)"/>
     <use xlink:href="#DejaVuSans-69" transform="translate(519.726562 0)"/>
     <use xlink:href="#DejaVuSans-74" transform="translate(547.509766 0)"/>
     <use xlink:href="#DejaVuSans-79" transform="translate(586.71875 0)"/>
    </g>
   </g>
   <g id="text_12">
    <!-- MAE -->
    <g style="fill: #262626" transform="translate(193.545333 63.936) scale(0.12 -0.12)">
     <use xlink:href="#DejaVuSans-4d"/>
     <use xlink:href="#DejaVuSans-41" transform="translate(86.279297 0)"/>
     <use xlink:href="#DejaVuSans-45" transform="translate(154.6875 0)"/>
    </g>
   </g>
  </g>
  <g id="axes_2">
   <g id="patch_7">
    <path d="M 445.646312 314.212 
L 765.074477 314.212 
L 765.074477 69.936 
L 445.646312 69.936 
z
" style="fill: #ffffff"/>
   </g>
   <g id="matplotlib.axis_3">
    <g id="xtick_4">
     <g id="line2d_17">
      <path d="M 460.165774 314.212 
L 460.165774 69.936 
" clip-path="url(#pb9935c283b)" style="fill: none; stroke: #cccccc; stroke-opacity: 0.3; stroke-linecap: round"/>
     </g>
     <g id="text_13">
      <!-- High -->
      <g style="fill: #1a8c3a" transform="translate(445.825383 332.070281) scale(0.11 -0.11)">
       <use xlink:href="#DejaVuSans-Bold-48"/>
       <use xlink:href="#DejaVuSans-Bold-69" transform="translate(83.691406 0)"/>
       <use xlink:href="#DejaVuSans-Bold-67" transform="translate(117.96875 0)"/>
       <use xlink:href="#DejaVuSans-Bold-68" transform="translate(189.550781 0)"/>
      </g>
      <!-- (Tier 3) -->
      <g style="fill: #1a8c3a" transform="translate(437.316712 344.473812) scale(0.11 -0.11)">
       <use xlink:href="#DejaVuSans-Bold-28"/>
       <use xlink:href="#DejaVuSans-Bold-54" transform="translate(45.703125 0)"/>
       <use xlink:href="#DejaVuSans-Bold-69" transform="translate(113.916016 0)"/>
       <use xlink:href="#DejaVuSans-Bold-65" transform="translate(148.193359 0)"/>
       <use xlink:href="#DejaVuSans-Bold-72" transform="translate(216.015625 0)"/>
       <use xlink:href="#DejaVuSans-Bold-20" transform="translate(265.332031 0)"/>
       <use xlink:href="#DejaVuSans-Bold-33" transform="translate(300.146484 0)"/>
       <use xlink:href="#DejaVuSans-Bold-29" transform="translate(369.726562 0)"/>
      </g>
     </g>
    </g>
    <g id="xtick_5">
     <g id="line2d_18">
      <path d="M 605.360395 314.212 
L 605.360395 69.936 
" clip-path="url(#pb9935c283b)" style="fill: none; stroke: #cccccc; stroke-opacity: 0.3; stroke-linecap: round"/>
     </g>
     <g id="text_14">
      <!-- Medium -->
      <g style="fill: #1a6faf" transform="translate(580.687738 332.070281) scale(0.11 -0.11)">
       <use xlink:href="#DejaVuSans-Bold-4d"/>
       <use xlink:href="#DejaVuSans-Bold-65" transform="translate(99.511719 0)"/>
       <use xlink:href="#DejaVuSans-Bold-64" transform="translate(167.333984 0)"/>
       <use xlink:href="#DejaVuSans-Bold-69" transform="translate(238.916016 0)"/>
       <use xlink:href="#DejaVuSans-Bold-75" transform="translate(273.193359 0)"/>
       <use xlink:href="#DejaVuSans-Bold-6d" transform="translate(344.384766 0)"/>
      </g>
      <!-- (Tier 2) -->
      <g style="fill: #1a6faf" transform="translate(582.511332 344.387875) scale(0.11 -0.11)">
       <use xlink:href="#DejaVuSans-Bold-28"/>
       <use xlink:href="#DejaVuSans-Bold-54" transform="translate(45.703125 0)"/>
       <use xlink:href="#DejaVuSans-Bold-69" transform="translate(113.916016 0)"/>
       <use xlink:href="#DejaVuSans-Bold-65" transform="translate(148.193359 0)"/>
       <use xlink:href="#DejaVuSans-Bold-72" transform="translate(216.015625 0)"/>
       <use xlink:href="#DejaVuSans-Bold-20" transform="translate(265.332031 0)"/>
       <use xlink:href="#DejaVuSans-Bold-32" transform="translate(300.146484 0)"/>
       <use xlink:href="#DejaVuSans-Bold-29" transform="translate(369.726562 0)"/>
      </g>
     </g>
    </g>
    <g id="xtick_6">
     <g id="line2d_19">
      <path d="M 750.555015 314.212 
L 750.555015 69.936 
" clip-path="url(#pb9935c283b)" style="fill: none; stroke: #cccccc; stroke-opacity: 0.3; stroke-linecap: round"/>
     </g>
     <g id="text_15">
      <!-- Low -->
      <g style="fill: #f5c400" transform="translate(738.190328 332.070281) scale(0.11 -0.11)">
       <use xlink:href="#DejaVuSans-Bold-4c"/>
       <use xlink:href="#DejaVuSans-Bold-6f" transform="translate(63.720703 0)"/>
       <use xlink:href="#DejaVuSans-Bold-77" transform="translate(132.421875 0)"/>
      </g>
      <!-- (Tier 1) -->
      <g style="fill: #f5c400" transform="translate(727.705953 344.387875) scale(0.11 -0.11)">
       <use xlink:href="#DejaVuSans-Bold-28"/>
       <use xlink:href="#DejaVuSans-Bold-54" transform="translate(45.703125 0)"/>
       <use xlink:href="#DejaVuSans-Bold-69" transform="translate(113.916016 0)"/>
       <use xlink:href="#DejaVuSans-Bold-65" transform="translate(148.193359 0)"/>
       <use xlink:href="#DejaVuSans-Bold-72" transform="translate(216.015625 0)"/>
       <use xlink:href="#DejaVuSans-Bold-20" transform="translate(265.332031 0)"/>
       <use xlink:href="#DejaVuSans-Bold-31" transform="translate(300.146484 0)"/>
       <use xlink:href="#DejaVuSans-Bold-29" transform="translate(369.726562 0)"/>
      </g>
     </g>
    </g>
   </g>
   <g id="matplotlib.axis_4">
    <g id="ytick_7">
     <g id="line2d_20">
      <path d="M 445.646312 294.39392 
L 765.074477 294.39392 
" clip-path="url(#pb9935c283b)" style="fill: none; stroke: #cccccc; stroke-opacity: 0.3; stroke-linecap: round"/>
     </g>
     <g id="text_16">
      <!-- −0.04 -->
      <g style="fill: #262626" transform="translate(402.436468 298.573061) scale(0.11 -0.11)">
       <use xlink:href="#DejaVuSans-2212"/>
       <use xlink:href="#DejaVuSans-30" transform="translate(83.789062 0)"/>
       <use xlink:href="#DejaVuSans-2e" transform="translate(147.412109 0)"/>
       <use xlink:href="#DejaVuSans-30" transform="translate(179.199219 0)"/>
       <use xlink:href="#DejaVuSans-34" transform="translate(242.822266 0)"/>
      </g>
     </g>
    </g>
    <g id="ytick_8">
     <g id="line2d_21">
      <path d="M 445.646312 265.635879 
L 765.074477 265.635879 
" clip-path="url(#pb9935c283b)" style="fill: none; stroke: #cccccc; stroke-opacity: 0.3; stroke-linecap: round"/>
     </g>
     <g id="text_17">
      <!-- −0.03 -->
      <g style="fill: #262626" transform="translate(402.436468 269.81502) scale(0.11 -0.11)">
       <use xlink:href="#DejaVuSans-2212"/>
       <use xlink:href="#DejaVuSans-30" transform="translate(83.789062 0)"/>
       <use xlink:href="#DejaVuSans-2e" transform="translate(147.412109 0)"/>
       <use xlink:href="#DejaVuSans-30" transform="translate(179.199219 0)"/>
       <use xlink:href="#DejaVuSans-33" transform="translate(242.822266 0)"/>
      </g>
     </g>
    </g>
    <g id="ytick_9">
     <g id="line2d_22">
      <path d="M 445.646312 236.877838 
L 765.074477 236.877838 
" clip-path="url(#pb9935c283b)" style="fill: none; stroke: #cccccc; stroke-opacity: 0.3; stroke-linecap: round"/>
     </g>
     <g id="text_18">
      <!-- −0.02 -->
      <g style="fill: #262626" transform="translate(402.436468 241.056978) scale(0.11 -0.11)">
       <use xlink:href="#DejaVuSans-2212"/>
       <use xlink:href="#DejaVuSans-30" transform="translate(83.789062 0)"/>
       <use xlink:href="#DejaVuSans-2e" transform="translate(147.412109 0)"/>
       <use xlink:href="#DejaVuSans-30" transform="translate(179.199219 0)"/>
       <use xlink:href="#DejaVuSans-32" transform="translate(242.822266 0)"/>
      </g>
     </g>
    </g>
    <g id="ytick_10">
     <g id="line2d_23">
      <path d="M 445.646312 208.119797 
L 765.074477 208.119797 
" clip-path="url(#pb9935c283b)" style="fill: none; stroke: #cccccc; stroke-opacity: 0.3; stroke-linecap: round"/>
     </g>
     <g id="text_19">
      <!-- −0.01 -->
      <g style="fill: #262626" transform="translate(402.436468 212.298937) scale(0.11 -0.11)">
       <use xlink:href="#DejaVuSans-2212"/>
       <use xlink:href="#DejaVuSans-30" transform="translate(83.789062 0)"/>
       <use xlink:href="#DejaVuSans-2e" transform="translate(147.412109 0)"/>
       <use xlink:href="#DejaVuSans-30" transform="translate(179.199219 0)"/>
       <use xlink:href="#DejaVuSans-31" transform="translate(242.822266 0)"/>
      </g>
     </g>
    </g>
    <g id="ytick_11">
     <g id="line2d_24">
      <path d="M 445.646312 179.361755 
L 765.074477 179.361755 
" clip-path="url(#pb9935c283b)" style="fill: none; stroke: #cccccc; stroke-opacity: 0.3; stroke-linecap: round"/>
     </g>
     <g id="text_20">
      <!-- 0.00 -->
      <g style="fill: #262626" transform="translate(411.654124 183.540896) scale(0.11 -0.11)">
       <use xlink:href="#DejaVuSans-30"/>
       <use xlink:href="#DejaVuSans-2e" transform="translate(63.623047 0)"/>
       <use xlink:href="#DejaVuSans-30" transform="translate(95.410156 0)"/>
       <use xlink:href="#DejaVuSans-30" transform="translate(159.033203 0)"/>
      </g>
     </g>
    </g>
    <g id="ytick_12">
     <g id="line2d_25">
      <path d="M 445.646312 150.603714 
L 765.074477 150.603714 
" clip-path="url(#pb9935c283b)" style="fill: none; stroke: #cccccc; stroke-opacity: 0.3; stroke-linecap: round"/>
     </g>
     <g id="text_21">
      <!-- 0.01 -->
      <g style="fill: #262626" transform="translate(411.654124 154.782855) scale(0.11 -0.11)">
       <use xlink:href="#DejaVuSans-30"/>
       <use xlink:href="#DejaVuSans-2e" transform="translate(63.623047 0)"/>
       <use xlink:href="#DejaVuSans-30" transform="translate(95.410156 0)"/>
       <use xlink:href="#DejaVuSans-31" transform="translate(159.033203 0)"/>
      </g>
     </g>
    </g>
    <g id="ytick_13">
     <g id="line2d_26">
      <path d="M 445.646312 121.845673 
L 765.074477 121.845673 
" clip-path="url(#pb9935c283b)" style="fill: none; stroke: #cccccc; stroke-opacity: 0.3; stroke-linecap: round"/>
     </g>
     <g id="text_22">
      <!-- 0.02 -->
      <g style="fill: #262626" transform="translate(411.654124 126.024814) scale(0.11 -0.11)">
       <use xlink:href="#DejaVuSans-30"/>
       <use xlink:href="#DejaVuSans-2e" transform="translate(63.623047 0)"/>
       <use xlink:href="#DejaVuSans-30" transform="translate(95.410156 0)"/>
       <use xlink:href="#DejaVuSans-32" transform="translate(159.033203 0)"/>
      </g>
     </g>
    </g>
    <g id="ytick_14">
     <g id="line2d_27">
      <path d="M 445.646312 93.087632 
L 765.074477 93.087632 
" clip-path="url(#pb9935c283b)" style="fill: none; stroke: #cccccc; stroke-opacity: 0.3; stroke-linecap: round"/>
     </g>
     <g id="text_23">
      <!-- 0.03 -->
      <g style="fill: #262626" transform="translate(411.654124 97.266773) scale(0.11 -0.11)">
       <use xlink:href="#DejaVuSans-30"/>
       <use xlink:href="#DejaVuSans-2e" transform="translate(63.623047 0)"/>
       <use xlink:href="#DejaVuSans-30" transform="translate(95.410156 0)"/>
       <use xlink:href="#DejaVuSans-33" transform="translate(159.033203 0)"/>
      </g>
     </g>
    </g>
    <g id="text_24">
     <!-- Skill vs ARIMA  (1 − RMSE/RMSE$_{ARIMA}$) -->
     <g style="fill: #262626" transform="translate(396.564749 276.719) rotate(-90) scale(0.09 -0.09)">
      <use xlink:href="#DejaVuSans-53" transform="translate(0 0.015625)"/>
      <use xlink:href="#DejaVuSans-6b" transform="translate(63.476562 0.015625)"/>
      <use xlink:href="#DejaVuSans-69" transform="translate(121.386719 0.015625)"/>
      <use xlink:href="#DejaVuSans-6c" transform="translate(149.169922 0.015625)"/>
      <use xlink:href="#DejaVuSans-6c" transform="translate(176.953125 0.015625)"/>
      <use xlink:href="#DejaVuSans-20" transform="translate(204.736328 0.015625)"/>
      <use xlink:href="#DejaVuSans-76" transform="translate(236.523438 0.015625)"/>
      <use xlink:href="#DejaVuSans-73" transform="translate(295.703125 0.015625)"/>
      <use xlink:href="#DejaVuSans-20" transform="translate(347.802734 0.015625)"/>
      <use xlink:href="#DejaVuSans-41" transform="translate(379.589844 0.015625)"/>
      <use xlink:href="#DejaVuSans-52" transform="translate(447.998047 0.015625)"/>
      <use xlink:href="#DejaVuSans-49" transform="translate(517.480469 0.015625)"/>
      <use xlink:href="#DejaVuSans-4d" transform="translate(546.972656 0.015625)"/>
      <use xlink:href="#DejaVuSans-41" transform="translate(633.251953 0.015625)"/>
      <use xlink:href="#DejaVuSans-20" transform="translate(701.660156 0.015625)"/>
      <use xlink:href="#DejaVuSans-20" transform="translate(733.447266 0.015625)"/>
      <use xlink:href="#DejaVuSans-28" transform="translate(765.234375 0.015625)"/>
      <use xlink:href="#DejaVuSans-31" transform="translate(804.248047 0.015625)"/>
      <use xlink:href="#DejaVuSans-20" transform="translate(867.871094 0.015625)"/>
      <use xlink:href="#DejaVuSans-2212" transform="translate(899.658203 0.015625)"/>
      <use xlink:href="#DejaVuSans-20" transform="translate(983.447266 0.015625)"/>
      <use xlink:href="#DejaVuSans-52" transform="translate(1015.234375 0.015625)"/>
      <use xlink:href="#DejaVuSans-4d" transform="translate(1084.716797 0.015625)"/>
      <use xlink:href="#DejaVuSans-53" transform="translate(1170.996094 0.015625)"/>
      <use xlink:href="#DejaVuSans-45" transform="translate(1234.472656 0.015625)"/>
      <use xlink:href="#DejaVuSans-2f" transform="translate(1297.65625 0.015625)"/>
      <use xlink:href="#DejaVuSans-52" transform="translate(1329.597656 0.015625)"/>
      <use xlink:href="#DejaVuSans-4d" transform="translate(1399.080078 0.015625)"/>
      <use xlink:href="#DejaVuSans-53" transform="translate(1485.359375 0.015625)"/>
      <use xlink:href="#DejaVuSans-45" transform="translate(1548.835938 0.015625)"/>
      <use xlink:href="#DejaVuSans-Oblique-41" transform="translate(1612.976562 -16.390625) scale(0.7)"/>
      <use xlink:href="#DejaVuSans-Oblique-52" transform="translate(1660.862305 -16.390625) scale(0.7)"/>
      <use xlink:href="#DejaVuSans-Oblique-49" transform="translate(1709.5 -16.390625) scale(0.7)"/>
      <use xlink:href="#DejaVuSans-Oblique-4d" transform="translate(1730.144531 -16.390625) scale(0.7)"/>
      <use xlink:href="#DejaVuSans-Oblique-41" transform="translate(1790.540039 -16.390625) scale(0.7)"/>
      <use xlink:href="#DejaVuSans-29" transform="translate(1841.160156 0.015625)"/>
     </g>
    </g>
   </g>
   <g id="line2d_28">
    <path d="M 460.165774 166.292478 
L 605.360395 162.332356 
L 750.555015 81.039455 
" clip-path="url(#pb9935c283b)" style="fill: none; stroke: #4c72b0; stroke-opacity: 0.85; stroke-width: 1.6; stroke-linecap: round"/>
    <g clip-path="url(#pb9935c283b)">
     <use xlink:href="#m91247236bd" x="460.165774" y="166.292478" style="fill: #4c72b0; fill-opacity: 0.85; stroke: #4c72b0; stroke-opacity: 0.85"/>
     <use xlink:href="#m91247236bd" x="605.360395" y="162.332356" style="fill: #4c72b0; fill-opacity: 0.85; stroke: #4c72b0; stroke-opacity: 0.85"/>
     <use xlink:href="#m91247236bd" x="750.555015" y="81.039455" style="fill: #4c72b0; fill-opacity: 0.85; stroke: #4c72b0; stroke-opacity: 0.85"/>
    </g>
   </g>
   <g id="line2d_29">
    <path d="M 460.165774 186.726892 
L 605.360395 303.108545 
L 750.555015 119.227153 
" clip-path="url(#pb9935c283b)" style="fill: none; stroke: #dd8452; stroke-opacity: 0.85; stroke-width: 1.6; stroke-linecap: round"/>
    <g clip-path="url(#pb9935c283b)">
     <use xlink:href="#m9132a257ad" x="460.165774" y="186.726892" style="fill: #dd8452; fill-opacity: 0.85; stroke: #dd8452; stroke-opacity: 0.85"/>
     <use xlink:href="#m9132a257ad" x="605.360395" y="303.108545" style="fill: #dd8452; fill-opacity: 0.85; stroke: #dd8452; stroke-opacity: 0.85"/>
     <use xlink:href="#m9132a257ad" x="750.555015" y="119.227153" style="fill: #dd8452; fill-opacity: 0.85; stroke: #dd8452; stroke-opacity: 0.85"/>
    </g>
   </g>
   <g id="line2d_30">
    <path d="M 460.165774 234.460439 
L 605.360395 132.419124 
L 750.555015 91.451264 
" clip-path="url(#pb9935c283b)" style="fill: none; stroke: #55a868; stroke-opacity: 0.85; stroke-width: 1.6; stroke-linecap: round"/>
    <g clip-path="url(#pb9935c283b)">
     <use xlink:href="#m3326c96c16" x="460.165774" y="234.460439" style="fill: #55a868; fill-opacity: 0.85; stroke: #55a868; stroke-opacity: 0.85"/>
     <use xlink:href="#m3326c96c16" x="605.360395" y="132.419124" style="fill: #55a868; fill-opacity: 0.85; stroke: #55a868; stroke-opacity: 0.85"/>
     <use xlink:href="#m3326c96c16" x="750.555015" y="91.451264" style="fill: #55a868; fill-opacity: 0.85; stroke: #55a868; stroke-opacity: 0.85"/>
    </g>
   </g>
   <g id="line2d_31">
    <path d="M 460.165774 157.47873 
L 605.360395 155.869881 
L 750.555015 88.695917 
" clip-path="url(#pb9935c283b)" style="fill: none; stroke: #c44e52; stroke-opacity: 0.85; stroke-width: 1.6; stroke-linecap: round"/>
    <g clip-path="url(#pb9935c283b)">
     <use xlink:href="#md602e5efbd" x="460.165774" y="157.47873" style="fill: #c44e52; fill-opacity: 0.85; stroke: #c44e52; stroke-opacity: 0.85"/>
     <use xlink:href="#md602e5efbd" x="605.360395" y="155.869881" style="fill: #c44e52; fill-opacity: 0.85; stroke: #c44e52; stroke-opacity: 0.85"/>
     <use xlink:href="#md602e5efbd" x="750.555015" y="88.695917" style="fill: #c44e52; fill-opacity: 0.85; stroke: #c44e52; stroke-opacity: 0.85"/>
    </g>
   </g>
   <g id="line2d_32">
    <path d="M 460.165774 174.437033 
L 605.360395 178.431262 
L 750.555015 83.617374 
" clip-path="url(#pb9935c283b)" style="fill: none; stroke: #8172b3; stroke-opacity: 0.85; stroke-width: 1.6; stroke-linecap: round"/>
    <g clip-path="url(#pb9935c283b)">
     <use xlink:href="#m68af87818c" x="460.165774" y="174.437033" style="fill: #8172b3; fill-opacity: 0.85; stroke: #8172b3; stroke-opacity: 0.85"/>
     <use xlink:href="#m68af87818c" x="605.360395" y="178.431262" style="fill: #8172b3; fill-opacity: 0.85; stroke: #8172b3; stroke-opacity: 0.85"/>
     <use xlink:href="#m68af87818c" x="750.555015" y="83.617374" style="fill: #8172b3; fill-opacity: 0.85; stroke: #8172b3; stroke-opacity: 0.85"/>
    </g>
   </g>
   <g id="line2d_33">
    <path d="M 460.165774 183.879114 
L 605.360395 186.432234 
L 750.555015 92.806233 
" clip-path="url(#pb9935c283b)" style="fill: none; stroke: #000000; stroke-width: 3; stroke-linecap: round"/>
    <g clip-path="url(#pb9935c283b)">
     <use xlink:href="#m6fea578623" x="460.165774" y="183.879114" style="stroke: #000000; stroke-linejoin: miter"/>
     <use xlink:href="#m6fea578623" x="605.360395" y="186.432234" style="stroke: #000000; stroke-linejoin: miter"/>
     <use xlink:href="#m6fea578623" x="750.555015" y="92.806233" style="stroke: #000000; stroke-linejoin: miter"/>
    </g>
   </g>
   <g id="line2d_34">
    <path d="M 445.646312 179.361755 
L 765.074477 179.361755 
" clip-path="url(#pb9935c283b)" style="fill: none; stroke-dasharray: 4.44,1.92; stroke-dashoffset: 0; stroke: #dc143c; stroke-width: 1.2"/>
   </g>
   <g id="patch_8">
    <path d="M 445.646312 314.212 
L 445.646312 69.936 
" style="fill: none; stroke: #cccccc; stroke-width: 1.25; stroke-linejoin: miter; stroke-linecap: square"/>
   </g>
   <g id="patch_9">
    <path d="M 765.074477 314.212 
L 765.074477 69.936 
" style="fill: none; stroke: #cccccc; stroke-width: 1.25; stroke-linejoin: miter; stroke-linecap: square"/>
   </g>
   <g id="patch_10">
    <path d="M 445.646312 314.212 
L 765.074477 314.212 
" style="fill: none; stroke: #cccccc; stroke-width: 1.25; stroke-linejoin: miter; stroke-linecap: square"/>
   </g>
   <g id="patch_11">
    <path d="M 445.646312 69.936 
L 765.074477 69.936 
" style="fill: none; stroke: #cccccc; stroke-width: 1.25; stroke-linejoin: miter; stroke-linecap: square"/>
   </g>
   <g id="text_25">
    <!-- ARIMA parity -->
    <g style="fill: #dc143c" transform="translate(701.786408 169.070593) scale(0.08 -0.08)">
     <use xlink:href="#DejaVuSans-41"/>
     <use xlink:href="#DejaVuSans-52" transform="translate(68.408203 0)"/>
     <use xlink:href="#DejaVuSans-49" transform="translate(137.890625 0)"/>
     <use xlink:href="#DejaVuSans-4d" transform="translate(167.382812 0)"/>
     <use xlink:href="#DejaVuSans-41" transform="translate(253.662109 0)"/>
     <use xlink:href="#DejaVuSans-20" transform="translate(322.070312 0)"/>
     <use xlink:href="#DejaVuSans-70" transform="translate(353.857422 0)"/>
     <use xlink:href="#DejaVuSans-61" transform="translate(417.333984 0)"/>
     <use xlink:href="#DejaVuSans-72" transform="translate(478.613281 0)"/>
     <use xlink:href="#DejaVuSans-69" transform="translate(519.726562 0)"/>
     <use xlink:href="#DejaVuSans-74" transform="translate(547.509766 0)"/>
     <use xlink:href="#DejaVuSans-79" transform="translate(586.71875 0)"/>
    </g>
   </g>
   <g id="text_26">
    <!-- RMSE -->
    <g style="fill: #262626" transform="translate(588.414145 63.936) scale(0.12 -0.12)">
     <use xlink:href="#DejaVuSans-52"/>
     <use xlink:href="#DejaVuSans-4d" transform="translate(69.482422 0)"/>
     <use xlink:href="#DejaVuSans-53" transform="translate(155.761719 0)"/>
     <use xlink:href="#DejaVuSans-45" transform="translate(219.238281 0)"/>
    </g>
   </g>
   <g id="legend_1">
    <g id="patch_12">
     <path d="M 773.168759 138.157562 
L 912.20954 138.157562 
Q 913.60954 138.157562 913.60954 136.757562 
L 913.60954 74.836 
Q 913.60954 73.436 912.20954 73.436 
L 773.168759 73.436 
Q 771.768759 73.436 771.768759 74.836 
L 771.768759 136.757562 
Q 771.768759 138.157562 773.168759 138.157562 
z
" style="fill: #ffffff; opacity: 0.8; stroke: #cccccc; stroke-linejoin: miter"/>
    </g>
    <g id="line2d_35">
     <path d="M 774.568759 79.104906 
L 781.568759 79.104906 
L 788.568759 79.104906 
" style="fill: none; stroke: #4c72b0; stroke-opacity: 0.85; stroke-width: 1.6; stroke-linecap: round"/>
     <g>
      <use xlink:href="#m91247236bd" x="781.568759" y="79.104906" style="fill: #4c72b0; fill-opacity: 0.85; stroke: #4c72b0; stroke-opacity: 0.85"/>
     </g>
    </g>
    <g id="text_27">
     <!-- catboost_tweedie_tuned_activity -->
     <g style="fill: #262626" transform="translate(794.168759 81.554906) scale(0.07 -0.07)">
      <defs>
       <path id="DejaVuSans-63" d="M 3122 3366 
L 3122 2828 
Q 2878 2963 2633 3030 
Q 2388 3097 2138 3097 
Q 1578 3097 1268 2742 
Q 959 2388 959 1747 
Q 959 1106 1268 751 
Q 1578 397 2138 397 
Q 2388 397 2633 464 
Q 2878 531 3122 666 
L 3122 134 
Q 2881 22 2623 -34 
Q 2366 -91 2075 -91 
Q 1284 -91 818 406 
Q 353 903 353 1747 
Q 353 2603 823 3093 
Q 1294 3584 2113 3584 
Q 2378 3584 2631 3529 
Q 2884 3475 3122 3366 
z
" transform="scale(0.015625)"/>
       <path id="DejaVuSans-62" d="M 3116 1747 
Q 3116 2381 2855 2742 
Q 2594 3103 2138 3103 
Q 1681 3103 1420 2742 
Q 1159 2381 1159 1747 
Q 1159 1113 1420 752 
Q 1681 391 2138 391 
Q 2594 391 2855 752 
Q 3116 1113 3116 1747 
z
M 1159 2969 
Q 1341 3281 1617 3432 
Q 1894 3584 2278 3584 
Q 2916 3584 3314 3078 
Q 3713 2572 3713 1747 
Q 3713 922 3314 415 
Q 2916 -91 2278 -91 
Q 1894 -91 1617 61 
Q 1341 213 1159 525 
L 1159 0 
L 581 0 
L 581 4863 
L 1159 4863 
L 1159 2969 
z
" transform="scale(0.015625)"/>
       <path id="DejaVuSans-6f" d="M 1959 3097 
Q 1497 3097 1228 2736 
Q 959 2375 959 1747 
Q 959 1119 1226 758 
Q 1494 397 1959 397 
Q 2419 397 2687 759 
Q 2956 1122 2956 1747 
Q 2956 2369 2687 2733 
Q 2419 3097 1959 3097 
z
M 1959 3584 
Q 2709 3584 3137 3096 
Q 3566 2609 3566 1747 
Q 3566 888 3137 398 
Q 2709 -91 1959 -91 
Q 1206 -91 779 398 
Q 353 888 353 1747 
Q 353 2609 779 3096 
Q 1206 3584 1959 3584 
z
" transform="scale(0.015625)"/>
       <path id="DejaVuSans-5f" d="M 3263 -1063 
L 3263 -1509 
L -63 -1509 
L -63 -1063 
L 3263 -1063 
z
" transform="scale(0.015625)"/>
       <path id="DejaVuSans-77" d="M 269 3500 
L 844 3500 
L 1563 769 
L 2278 3500 
L 2956 3500 
L 3675 769 
L 4391 3500 
L 4966 3500 
L 4050 0 
L 3372 0 
L 2619 2869 
L 1863 0 
L 1184 0 
L 269 3500 
z
" transform="scale(0.015625)"/>
       <path id="DejaVuSans-65" d="M 3597 1894 
L 3597 1613 
L 953 1613 
Q 991 1019 1311 708 
Q 1631 397 2203 397 
Q 2534 397 2845 478 
Q 3156 559 3463 722 
L 3463 178 
Q 3153 47 2828 -22 
Q 2503 -91 2169 -91 
Q 1331 -91 842 396 
Q 353 884 353 1716 
Q 353 2575 817 3079 
Q 1281 3584 2069 3584 
Q 2775 3584 3186 3129 
Q 3597 2675 3597 1894 
z
M 3022 2063 
Q 3016 2534 2758 2815 
Q 2500 3097 2075 3097 
Q 1594 3097 1305 2825 
Q 1016 2553 972 2059 
L 3022 2063 
z
" transform="scale(0.015625)"/>
       <path id="DejaVuSans-64" d="M 2906 2969 
L 2906 4863 
L 3481 4863 
L 3481 0 
L 2906 0 
L 2906 525 
Q 2725 213 2448 61 
Q 2172 -91 1784 -91 
Q 1150 -91 751 415 
Q 353 922 353 1747 
Q 353 2572 751 3078 
Q 1150 3584 1784 3584 
Q 2172 3584 2448 3432 
Q 2725 3281 2906 2969 
z
M 947 1747 
Q 947 1113 1208 752 
Q 1469 391 1925 391 
Q 2381 391 2643 752 
Q 2906 1113 2906 1747 
Q 2906 2381 2643 2742 
Q 2381 3103 1925 3103 
Q 1469 3103 1208 2742 
Q 947 2381 947 1747 
z
" transform="scale(0.015625)"/>
       <path id="DejaVuSans-75" d="M 544 1381 
L 544 3500 
L 1119 3500 
L 1119 1403 
Q 1119 906 1312 657 
Q 1506 409 1894 409 
Q 2359 409 2629 706 
Q 2900 1003 2900 1516 
L 2900 3500 
L 3475 3500 
L 3475 0 
L 2900 0 
L 2900 538 
Q 2691 219 2414 64 
Q 2138 -91 1772 -91 
Q 1169 -91 856 284 
Q 544 659 544 1381 
z
M 1991 3584 
L 1991 3584 
z
" transform="scale(0.015625)"/>
       <path id="DejaVuSans-6e" d="M 3513 2113 
L 3513 0 
L 2938 0 
L 2938 2094 
Q 2938 2591 2744 2837 
Q 2550 3084 2163 3084 
Q 1697 3084 1428 2787 
Q 1159 2491 1159 1978 
L 1159 0 
L 581 0 
L 581 3500 
L 1159 3500 
L 1159 2956 
Q 1366 3272 1645 3428 
Q 1925 3584 2291 3584 
Q 2894 3584 3203 3211 
Q 3513 2838 3513 2113 
z
" transform="scale(0.015625)"/>
      </defs>
      <use xlink:href="#DejaVuSans-63"/>
      <use xlink:href="#DejaVuSans-61" transform="translate(54.980469 0)"/>
      <use xlink:href="#DejaVuSans-74" transform="translate(116.259766 0)"/>
      <use xlink:href="#DejaVuSans-62" transform="translate(155.46875 0)"/>
      <use xlink:href="#DejaVuSans-6f" transform="translate(218.945312 0)"/>
      <use xlink:href="#DejaVuSans-6f" transform="translate(280.126953 0)"/>
      <use xlink:href="#DejaVuSans-73" transform="translate(341.308594 0)"/>
      <use xlink:href="#DejaVuSans-74" transform="translate(393.408203 0)"/>
      <use xlink:href="#DejaVuSans-5f" transform="translate(432.617188 0)"/>
      <use xlink:href="#DejaVuSans-74" transform="translate(482.617188 0)"/>
      <use xlink:href="#DejaVuSans-77" transform="translate(521.826172 0)"/>
      <use xlink:href="#DejaVuSans-65" transform="translate(603.613281 0)"/>
      <use xlink:href="#DejaVuSans-65" transform="translate(665.136719 0)"/>
      <use xlink:href="#DejaVuSans-64" transform="translate(726.660156 0)"/>
      <use xlink:href="#DejaVuSans-69" transform="translate(790.136719 0)"/>
      <use xlink:href="#DejaVuSans-65" transform="translate(817.919922 0)"/>
      <use xlink:href="#DejaVuSans-5f" transform="translate(879.443359 0)"/>
      <use xlink:href="#DejaVuSans-74" transform="translate(929.443359 0)"/>
      <use xlink:href="#DejaVuSans-75" transform="translate(968.652344 0)"/>
      <use xlink:href="#DejaVuSans-6e" transform="translate(1032.03125 0)"/>
      <use xlink:href="#DejaVuSans-65" transform="translate(1095.410156 0)"/>
      <use xlink:href="#DejaVuSans-64" transform="translate(1156.933594 0)"/>
      <use xlink:href="#DejaVuSans-5f" transform="translate(1220.410156 0)"/>
      <use xlink:href="#DejaVuSans-61" transform="translate(1270.410156 0)"/>
      <use xlink:href="#DejaVuSans-63" transform="translate(1331.689453 0)"/>
      <use xlink:href="#DejaVuSans-74" transform="translate(1386.669922 0)"/>
      <use xlink:href="#DejaVuSans-69" transform="translate(1425.878906 0)"/>
      <use xlink:href="#DejaVuSans-76" transform="translate(1453.662109 0)"/>
      <use xlink:href="#DejaVuSans-69" transform="translate(1512.841797 0)"/>
      <use xlink:href="#DejaVuSans-74" transform="translate(1540.625 0)"/>
      <use xlink:href="#DejaVuSans-79" transform="translate(1579.833984 0)"/>
     </g>
    </g>
    <g id="line2d_36">
     <path d="M 774.568759 89.574281 
L 781.568759 89.574281 
L 788.568759 89.574281 
" style="fill: none; stroke: #dd8452; stroke-opacity: 0.85; stroke-width: 1.6; stroke-linecap: round"/>
     <g>
      <use xlink:href="#m9132a257ad" x="781.568759" y="89.574281" style="fill: #dd8452; fill-opacity: 0.85; stroke: #dd8452; stroke-opacity: 0.85"/>
     </g>
    </g>
    <g id="text_28">
     <!-- chronos2_fine_tuned_local -->
     <g style="fill: #262626" transform="translate(794.168759 92.024281) scale(0.07 -0.07)">
      <defs>
       <path id="DejaVuSans-68" d="M 3513 2113 
L 3513 0 
L 2938 0 
L 2938 2094 
Q 2938 2591 2744 2837 
Q 2550 3084 2163 3084 
Q 1697 3084 1428 2787 
Q 1159 2491 1159 1978 
L 1159 0 
L 581 0 
L 581 4863 
L 1159 4863 
L 1159 2956 
Q 1366 3272 1645 3428 
Q 1925 3584 2291 3584 
Q 2894 3584 3203 3211 
Q 3513 2838 3513 2113 
z
" transform="scale(0.015625)"/>
       <path id="DejaVuSans-66" d="M 2375 4863 
L 2375 4384 
L 1825 4384 
Q 1516 4384 1395 4259 
Q 1275 4134 1275 3809 
L 1275 3500 
L 2222 3500 
L 2222 3053 
L 1275 3053 
L 1275 0 
L 697 0 
L 697 3053 
L 147 3053 
L 147 3500 
L 697 3500 
L 697 3744 
Q 697 4328 969 4595 
Q 1241 4863 1831 4863 
L 2375 4863 
z
" transform="scale(0.015625)"/>
      </defs>
      <use xlink:href="#DejaVuSans-63"/>
      <use xlink:href="#DejaVuSans-68" transform="translate(54.980469 0)"/>
      <use xlink:href="#DejaVuSans-72" transform="translate(118.359375 0)"/>
      <use xlink:href="#DejaVuSans-6f" transform="translate(157.222656 0)"/>
      <use xlink:href="#DejaVuSans-6e" transform="translate(218.404297 0)"/>
      <use xlink:href="#DejaVuSans-6f" transform="translate(281.783203 0)"/>
      <use xlink:href="#DejaVuSans-73" transform="translate(342.964844 0)"/>
      <use xlink:href="#DejaVuSans-32" transform="translate(395.064453 0)"/>
      <use xlink:href="#DejaVuSans-5f" transform="translate(458.6875 0)"/>
      <use xlink:href="#DejaVuSans-66" transform="translate(508.6875 0)"/>
      <use xlink:href="#DejaVuSans-69" transform="translate(543.892578 0)"/>
      <use xlink:href="#DejaVuSans-6e" transform="translate(571.675781 0)"/>
      <use xlink:href="#DejaVuSans-65" transform="translate(635.054688 0)"/>
      <use xlink:href="#DejaVuSans-5f" transform="translate(696.578125 0)"/>
      <use xlink:href="#DejaVuSans-74" transform="translate(746.578125 0)"/>
      <use xlink:href="#DejaVuSans-75" transform="translate(785.787109 0)"/>
      <use xlink:href="#DejaVuSans-6e" transform="translate(849.166016 0)"/>
      <use xlink:href="#DejaVuSans-65" transform="translate(912.544922 0)"/>
      <use xlink:href="#DejaVuSans-64" transform="translate(974.068359 0)"/>
      <use xlink:href="#DejaVuSans-5f" transform="translate(1037.544922 0)"/>
      <use xlink:href="#DejaVuSans-6c" transform="translate(1087.544922 0)"/>
      <use xlink:href="#DejaVuSans-6f" transform="translate(1115.328125 0)"/>
      <use xlink:href="#DejaVuSans-63" transform="translate(1176.509766 0)"/>
      <use xlink:href="#DejaVuSans-61" transform="translate(1231.490234 0)"/>
      <use xlink:href="#DejaVuSans-6c" transform="translate(1292.769531 0)"/>
     </g>
    </g>
    <g id="line2d_37">
     <path d="M 774.568759 100.043656 
L 781.568759 100.043656 
L 788.568759 100.043656 
" style="fill: none; stroke: #55a868; stroke-opacity: 0.85; stroke-width: 1.6; stroke-linecap: round"/>
     <g>
      <use xlink:href="#m3326c96c16" x="781.568759" y="100.043656" style="fill: #55a868; fill-opacity: 0.85; stroke: #55a868; stroke-opacity: 0.85"/>
     </g>
    </g>
    <g id="text_29">
     <!-- catboost_tweedie_tuned_global -->
     <g style="fill: #262626" transform="translate(794.168759 102.493656) scale(0.07 -0.07)">
      <defs>
       <path id="DejaVuSans-67" d="M 2906 1791 
Q 2906 2416 2648 2759 
Q 2391 3103 1925 3103 
Q 1463 3103 1205 2759 
Q 947 2416 947 1791 
Q 947 1169 1205 825 
Q 1463 481 1925 481 
Q 2391 481 2648 825 
Q 2906 1169 2906 1791 
z
M 3481 434 
Q 3481 -459 3084 -895 
Q 2688 -1331 1869 -1331 
Q 1566 -1331 1297 -1286 
Q 1028 -1241 775 -1147 
L 775 -588 
Q 1028 -725 1275 -790 
Q 1522 -856 1778 -856 
Q 2344 -856 2625 -561 
Q 2906 -266 2906 331 
L 2906 616 
Q 2728 306 2450 153 
Q 2172 0 1784 0 
Q 1141 0 747 490 
Q 353 981 353 1791 
Q 353 2603 747 3093 
Q 1141 3584 1784 3584 
Q 2172 3584 2450 3431 
Q 2728 3278 2906 2969 
L 2906 3500 
L 3481 3500 
L 3481 434 
z
" transform="scale(0.015625)"/>
      </defs>
      <use xlink:href="#DejaVuSans-63"/>
      <use xlink:href="#DejaVuSans-61" transform="translate(54.980469 0)"/>
      <use xlink:href="#DejaVuSans-74" transform="translate(116.259766 0)"/>
      <use xlink:href="#DejaVuSans-62" transform="translate(155.46875 0)"/>
      <use xlink:href="#DejaVuSans-6f" transform="translate(218.945312 0)"/>
      <use xlink:href="#DejaVuSans-6f" transform="translate(280.126953 0)"/>
      <use xlink:href="#DejaVuSans-73" transform="translate(341.308594 0)"/>
      <use xlink:href="#DejaVuSans-74" transform="translate(393.408203 0)"/>
      <use xlink:href="#DejaVuSans-5f" transform="translate(432.617188 0)"/>
      <use xlink:href="#DejaVuSans-74" transform="translate(482.617188 0)"/>
      <use xlink:href="#DejaVuSans-77" transform="translate(521.826172 0)"/>
      <use xlink:href="#DejaVuSans-65" transform="translate(603.613281 0)"/>
      <use xlink:href="#DejaVuSans-65" transform="translate(665.136719 0)"/>
      <use xlink:href="#DejaVuSans-64" transform="translate(726.660156 0)"/>
      <use xlink:href="#DejaVuSans-69" transform="translate(790.136719 0)"/>
      <use xlink:href="#DejaVuSans-65" transform="translate(817.919922 0)"/>
      <use xlink:href="#DejaVuSans-5f" transform="translate(879.443359 0)"/>
      <use xlink:href="#DejaVuSans-74" transform="translate(929.443359 0)"/>
      <use xlink:href="#DejaVuSans-75" transform="translate(968.652344 0)"/>
      <use xlink:href="#DejaVuSans-6e" transform="translate(1032.03125 0)"/>
      <use xlink:href="#DejaVuSans-65" transform="translate(1095.410156 0)"/>
      <use xlink:href="#DejaVuSans-64" transform="translate(1156.933594 0)"/>
      <use xlink:href="#DejaVuSans-5f" transform="translate(1220.410156 0)"/>
      <use xlink:href="#DejaVuSans-67" transform="translate(1270.410156 0)"/>
      <use xlink:href="#DejaVuSans-6c" transform="translate(1333.886719 0)"/>
      <use xlink:href="#DejaVuSans-6f" transform="translate(1361.669922 0)"/>
      <use xlink:href="#DejaVuSans-62" transform="translate(1422.851562 0)"/>
      <use xlink:href="#DejaVuSans-61" transform="translate(1486.328125 0)"/>
      <use xlink:href="#DejaVuSans-6c" transform="translate(1547.607422 0)"/>
     </g>
    </g>
    <g id="line2d_38">
     <path d="M 774.568759 110.513031 
L 781.568759 110.513031 
L 788.568759 110.513031 
" style="fill: none; stroke: #c44e52; stroke-opacity: 0.85; stroke-width: 1.6; stroke-linecap: round"/>
     <g>
      <use xlink:href="#md602e5efbd" x="781.568759" y="110.513031" style="fill: #c44e52; fill-opacity: 0.85; stroke: #c44e52; stroke-opacity: 0.85"/>
     </g>
    </g>
    <g id="text_30">
     <!-- lightgbm_poisson_tuned_global -->
     <g style="fill: #262626" transform="translate(794.168759 112.963031) scale(0.07 -0.07)">
      <defs>
       <path id="DejaVuSans-6d" d="M 3328 2828 
Q 3544 3216 3844 3400 
Q 4144 3584 4550 3584 
Q 5097 3584 5394 3201 
Q 5691 2819 5691 2113 
L 5691 0 
L 5113 0 
L 5113 2094 
Q 5113 2597 4934 2840 
Q 4756 3084 4391 3084 
Q 3944 3084 3684 2787 
Q 3425 2491 3425 1978 
L 3425 0 
L 2847 0 
L 2847 2094 
Q 2847 2600 2669 2842 
Q 2491 3084 2119 3084 
Q 1678 3084 1418 2786 
Q 1159 2488 1159 1978 
L 1159 0 
L 581 0 
L 581 3500 
L 1159 3500 
L 1159 2956 
Q 1356 3278 1631 3431 
Q 1906 3584 2284 3584 
Q 2666 3584 2933 3390 
Q 3200 3197 3328 2828 
z
" transform="scale(0.015625)"/>
      </defs>
      <use xlink:href="#DejaVuSans-6c"/>
      <use xlink:href="#DejaVuSans-69" transform="translate(27.783203 0)"/>
      <use xlink:href="#DejaVuSans-67" transform="translate(55.566406 0)"/>
      <use xlink:href="#DejaVuSans-68" transform="translate(119.042969 0)"/>
      <use xlink:href="#DejaVuSans-74" transform="translate(182.421875 0)"/>
      <use xlink:href="#DejaVuSans-67" transform="translate(221.630859 0)"/>
      <use xlink:href="#DejaVuSans-62" transform="translate(285.107422 0)"/>
      <use xlink:href="#DejaVuSans-6d" transform="translate(348.583984 0)"/>
      <use xlink:href="#DejaVuSans-5f" transform="translate(445.996094 0)"/>
      <use xlink:href="#DejaVuSans-70" transform="translate(495.996094 0)"/>
      <use xlink:href="#DejaVuSans-6f" transform="translate(559.472656 0)"/>
      <use xlink:href="#DejaVuSans-69" transform="translate(620.654297 0)"/>
      <use xlink:href="#DejaVuSans-73" transform="translate(648.4375 0)"/>
      <use xlink:href="#DejaVuSans-73" transform="translate(700.537109 0)"/>
      <use xlink:href="#DejaVuSans-6f" transform="translate(752.636719 0)"/>
      <use xlink:href="#DejaVuSans-6e" transform="translate(813.818359 0)"/>
      <use xlink:href="#DejaVuSans-5f" transform="translate(877.197266 0)"/>
      <use xlink:href="#DejaVuSans-74" transform="translate(927.197266 0)"/>
      <use xlink:href="#DejaVuSans-75" transform="translate(966.40625 0)"/>
      <use xlink:href="#DejaVuSans-6e" transform="translate(1029.785156 0)"/>
      <use xlink:href="#DejaVuSans-65" transform="translate(1093.164062 0)"/>
      <use xlink:href="#DejaVuSans-64" transform="translate(1154.6875 0)"/>
      <use xlink:href="#DejaVuSans-5f" transform="translate(1218.164062 0)"/>
      <use xlink:href="#DejaVuSans-67" transform="translate(1268.164062 0)"/>
      <use xlink:href="#DejaVuSans-6c" transform="translate(1331.640625 0)"/>
      <use xlink:href="#DejaVuSans-6f" transform="translate(1359.423828 0)"/>
      <use xlink:href="#DejaVuSans-62" transform="translate(1420.605469 0)"/>
      <use xlink:href="#DejaVuSans-61" transform="translate(1484.082031 0)"/>
      <use xlink:href="#DejaVuSans-6c" transform="translate(1545.361328 0)"/>
     </g>
    </g>
    <g id="line2d_39">
     <path d="M 774.568759 120.982406 
L 781.568759 120.982406 
L 788.568759 120.982406 
" style="fill: none; stroke: #8172b3; stroke-opacity: 0.85; stroke-width: 1.6; stroke-linecap: round"/>
     <g>
      <use xlink:href="#m68af87818c" x="781.568759" y="120.982406" style="fill: #8172b3; fill-opacity: 0.85; stroke: #8172b3; stroke-opacity: 0.85"/>
     </g>
    </g>
    <g id="text_31">
     <!-- lstm_poisson_w28_tuned_activity -->
     <g style="fill: #262626" transform="translate(794.168759 123.432406) scale(0.07 -0.07)">
      <defs>
       <path id="DejaVuSans-38" d="M 2034 2216 
Q 1584 2216 1326 1975 
Q 1069 1734 1069 1313 
Q 1069 891 1326 650 
Q 1584 409 2034 409 
Q 2484 409 2743 651 
Q 3003 894 3003 1313 
Q 3003 1734 2745 1975 
Q 2488 2216 2034 2216 
z
M 1403 2484 
Q 997 2584 770 2862 
Q 544 3141 544 3541 
Q 544 4100 942 4425 
Q 1341 4750 2034 4750 
Q 2731 4750 3128 4425 
Q 3525 4100 3525 3541 
Q 3525 3141 3298 2862 
Q 3072 2584 2669 2484 
Q 3125 2378 3379 2068 
Q 3634 1759 3634 1313 
Q 3634 634 3220 271 
Q 2806 -91 2034 -91 
Q 1263 -91 848 271 
Q 434 634 434 1313 
Q 434 1759 690 2068 
Q 947 2378 1403 2484 
z
M 1172 3481 
Q 1172 3119 1398 2916 
Q 1625 2713 2034 2713 
Q 2441 2713 2670 2916 
Q 2900 3119 2900 3481 
Q 2900 3844 2670 4047 
Q 2441 4250 2034 4250 
Q 1625 4250 1398 4047 
Q 1172 3844 1172 3481 
z
" transform="scale(0.015625)"/>
      </defs>
      <use xlink:href="#DejaVuSans-6c"/>
      <use xlink:href="#DejaVuSans-73" transform="translate(27.783203 0)"/>
      <use xlink:href="#DejaVuSans-74" transform="translate(79.882812 0)"/>
      <use xlink:href="#DejaVuSans-6d" transform="translate(119.091797 0)"/>
      <use xlink:href="#DejaVuSans-5f" transform="translate(216.503906 0)"/>
      <use xlink:href="#DejaVuSans-70" transform="translate(266.503906 0)"/>
      <use xlink:href="#DejaVuSans-6f" transform="translate(329.980469 0)"/>
      <use xlink:href="#DejaVuSans-69" transform="translate(391.162109 0)"/>
      <use xlink:href="#DejaVuSans-73" transform="translate(418.945312 0)"/>
      <use xlink:href="#DejaVuSans-73" transform="translate(471.044922 0)"/>
      <use xlink:href="#DejaVuSans-6f" transform="translate(523.144531 0)"/>
      <use xlink:href="#DejaVuSans-6e" transform="translate(584.326172 0)"/>
      <use xlink:href="#DejaVuSans-5f" transform="translate(647.705078 0)"/>
      <use xlink:href="#DejaVuSans-77" transform="translate(697.705078 0)"/>
      <use xlink:href="#DejaVuSans-32" transform="translate(779.492188 0)"/>
      <use xlink:href="#DejaVuSans-38" transform="translate(843.115234 0)"/>
      <use xlink:href="#DejaVuSans-5f" transform="translate(906.738281 0)"/>
      <use xlink:href="#DejaVuSans-74" transform="translate(956.738281 0)"/>
      <use xlink:href="#DejaVuSans-75" transform="translate(995.947266 0)"/>
      <use xlink:href="#DejaVuSans-6e" transform="translate(1059.326172 0)"/>
      <use xlink:href="#DejaVuSans-65" transform="translate(1122.705078 0)"/>
      <use xlink:href="#DejaVuSans-64" transform="translate(1184.228516 0)"/>
      <use xlink:href="#DejaVuSans-5f" transform="translate(1247.705078 0)"/>
      <use xlink:href="#DejaVuSans-61" transform="translate(1297.705078 0)"/>
      <use xlink:href="#DejaVuSans-63" transform="translate(1358.984375 0)"/>
      <use xlink:href="#DejaVuSans-74" transform="translate(1413.964844 0)"/>
      <use xlink:href="#DejaVuSans-69" transform="translate(1453.173828 0)"/>
      <use xlink:href="#DejaVuSans-76" transform="translate(1480.957031 0)"/>
      <use xlink:href="#DejaVuSans-69" transform="translate(1540.136719 0)"/>
      <use xlink:href="#DejaVuSans-74" transform="translate(1567.919922 0)"/>
      <use xlink:href="#DejaVuSans-79" transform="translate(1607.128906 0)"/>
     </g>
    </g>
    <g id="line2d_40">
     <path d="M 774.568759 131.451781 
L 781.568759 131.451781 
L 788.568759 131.451781 
" style="fill: none; stroke: #000000; stroke-width: 3; stroke-linecap: round"/>
     <g>
      <use xlink:href="#m6fea578623" x="781.568759" y="131.451781" style="stroke: #000000; stroke-linejoin: miter"/>
     </g>
    </g>
    <g id="text_32">
     <!-- mean (all multivariate) -->
     <g style="fill: #262626" transform="translate(794.168759 133.901781) scale(0.07 -0.07)">
      <use xlink:href="#DejaVuSans-6d"/>
      <use xlink:href="#DejaVuSans-65" transform="translate(97.412109 0)"/>
      <use xlink:href="#DejaVuSans-61" transform="translate(158.935547 0)"/>
      <use xlink:href="#DejaVuSans-6e" transform="translate(220.214844 0)"/>
      <use xlink:href="#DejaVuSans-20" transform="translate(283.59375 0)"/>
      <use xlink:href="#DejaVuSans-28" transform="translate(315.380859 0)"/>
      <use xlink:href="#DejaVuSans-61" transform="translate(354.394531 0)"/>
      <use xlink:href="#DejaVuSans-6c" transform="translate(415.673828 0)"/>
      <use xlink:href="#DejaVuSans-6c" transform="translate(443.457031 0)"/>
      <use xlink:href="#DejaVuSans-20" transform="translate(471.240234 0)"/>
      <use xlink:href="#DejaVuSans-6d" transform="translate(503.027344 0)"/>
      <use xlink:href="#DejaVuSans-75" transform="translate(600.439453 0)"/>
      <use xlink:href="#DejaVuSans-6c" transform="translate(663.818359 0)"/>
      <use xlink:href="#DejaVuSans-74" transform="translate(691.601562 0)"/>
      <use xlink:href="#DejaVuSans-69" transform="translate(730.810547 0)"/>
      <use xlink:href="#DejaVuSans-76" transform="translate(758.59375 0)"/>
      <use xlink:href="#DejaVuSans-61" transform="translate(817.773438 0)"/>
      <use xlink:href="#DejaVuSans-72" transform="translate(879.052734 0)"/>
      <use xlink:href="#DejaVuSans-69" transform="translate(920.166016 0)"/>
      <use xlink:href="#DejaVuSans-61" transform="translate(947.949219 0)"/>
      <use xlink:href="#DejaVuSans-74" transform="translate(1009.228516 0)"/>
      <use xlink:href="#DejaVuSans-65" transform="translate(1048.4375 0)"/>
      <use xlink:href="#DejaVuSans-29" transform="translate(1109.960938 0)"/>
     </g>
    </g>
   </g>
  </g>
  <g id="text_33">
   <!-- Multivariate models' advantage over ARIMA, by activity tier -->
   <g style="fill: #262626" transform="translate(265.618625 17.077969) scale(0.13 -0.13)">
    <defs>
     <path id="DejaVuSans-27" d="M 1147 4666 
L 1147 2931 
L 616 2931 
L 616 4666 
L 1147 4666 
z
" transform="scale(0.015625)"/>
     <path id="DejaVuSans-2c" d="M 750 794 
L 1409 794 
L 1409 256 
L 897 -744 
L 494 -744 
L 750 256 
L 750 794 
z
" transform="scale(0.015625)"/>
    </defs>
    <use xlink:href="#DejaVuSans-4d"/>
    <use xlink:href="#DejaVuSans-75" transform="translate(86.279297 0)"/>
    <use xlink:href="#DejaVuSans-6c" transform="translate(149.658203 0)"/>
    <use xlink:href="#DejaVuSans-74" transform="translate(177.441406 0)"/>
    <use xlink:href="#DejaVuSans-69" transform="translate(216.650391 0)"/>
    <use xlink:href="#DejaVuSans-76" transform="translate(244.433594 0)"/>
    <use xlink:href="#DejaVuSans-61" transform="translate(303.613281 0)"/>
    <use xlink:href="#DejaVuSans-72" transform="translate(364.892578 0)"/>
    <use xlink:href="#DejaVuSans-69" transform="translate(406.005859 0)"/>
    <use xlink:href="#DejaVuSans-61" transform="translate(433.789062 0)"/>
    <use xlink:href="#DejaVuSans-74" transform="translate(495.068359 0)"/>
    <use xlink:href="#DejaVuSans-65" transform="translate(534.277344 0)"/>
    <use xlink:href="#DejaVuSans-20" transform="translate(595.800781 0)"/>
    <use xlink:href="#DejaVuSans-6d" transform="translate(627.587891 0)"/>
    <use xlink:href="#DejaVuSans-6f" transform="translate(725 0)"/>
    <use xlink:href="#DejaVuSans-64" transform="translate(786.181641 0)"/>
    <use xlink:href="#DejaVuSans-65" transform="translate(849.658203 0)"/>
    <use xlink:href="#DejaVuSans-6c" transform="translate(911.181641 0)"/>
    <use xlink:href="#DejaVuSans-73" transform="translate(938.964844 0)"/>
    <use xlink:href="#DejaVuSans-27" transform="translate(991.064453 0)"/>
    <use xlink:href="#DejaVuSans-20" transform="translate(1018.554688 0)"/>
    <use xlink:href="#DejaVuSans-61" transform="translate(1050.341797 0)"/>
    <use xlink:href="#DejaVuSans-64" transform="translate(1111.621094 0)"/>
    <use xlink:href="#DejaVuSans-76" transform="translate(1175.097656 0)"/>
    <use xlink:href="#DejaVuSans-61" transform="translate(1234.277344 0)"/>
    <use xlink:href="#DejaVuSans-6e" transform="translate(1295.556641 0)"/>
    <use xlink:href="#DejaVuSans-74" transform="translate(1358.935547 0)"/>
    <use xlink:href="#DejaVuSans-61" transform="translate(1398.144531 0)"/>
    <use xlink:href="#DejaVuSans-67" transform="translate(1459.423828 0)"/>
    <use xlink:href="#DejaVuSans-65" transform="translate(1522.900391 0)"/>
    <use xlink:href="#DejaVuSans-20" transform="translate(1584.423828 0)"/>
    <use xlink:href="#DejaVuSans-6f" transform="translate(1616.210938 0)"/>
    <use xlink:href="#DejaVuSans-76" transform="translate(1677.392578 0)"/>
    <use xlink:href="#DejaVuSans-65" transform="translate(1736.572266 0)"/>
    <use xlink:href="#DejaVuSans-72" transform="translate(1798.095703 0)"/>
    <use xlink:href="#DejaVuSans-20" transform="translate(1839.208984 0)"/>
    <use xlink:href="#DejaVuSans-41" transform="translate(1870.996094 0)"/>
    <use xlink:href="#DejaVuSans-52" transform="translate(1939.404297 0)"/>
    <use xlink:href="#DejaVuSans-49" transform="translate(2008.886719 0)"/>
    <use xlink:href="#DejaVuSans-4d" transform="translate(2038.378906 0)"/>
    <use xlink:href="#DejaVuSans-41" transform="translate(2124.658203 0)"/>
    <use xlink:href="#DejaVuSans-2c" transform="translate(2193.066406 0)"/>
    <use xlink:href="#DejaVuSans-20" transform="translate(2224.853516 0)"/>
    <use xlink:href="#DejaVuSans-62" transform="translate(2256.640625 0)"/>
    <use xlink:href="#DejaVuSans-79" transform="translate(2320.117188 0)"/>
    <use xlink:href="#DejaVuSans-20" transform="translate(2379.296875 0)"/>
    <use xlink:href="#DejaVuSans-61" transform="translate(2411.083984 0)"/>
    <use xlink:href="#DejaVuSans-63" transform="translate(2472.363281 0)"/>
    <use xlink:href="#DejaVuSans-74" transform="translate(2527.34375 0)"/>
    <use xlink:href="#DejaVuSans-69" transform="translate(2566.552734 0)"/>
    <use xlink:href="#DejaVuSans-76" transform="translate(2594.335938 0)"/>
    <use xlink:href="#DejaVuSans-69" transform="translate(2653.515625 0)"/>
    <use xlink:href="#DejaVuSans-74" transform="translate(2681.298828 0)"/>
    <use xlink:href="#DejaVuSans-79" transform="translate(2720.507812 0)"/>
    <use xlink:href="#DejaVuSans-20" transform="translate(2779.6875 0)"/>
    <use xlink:href="#DejaVuSans-74" transform="translate(2811.474609 0)"/>
    <use xlink:href="#DejaVuSans-69" transform="translate(2850.683594 0)"/>
    <use xlink:href="#DejaVuSans-65" transform="translate(2878.466797 0)"/>
    <use xlink:href="#DejaVuSans-72" transform="translate(2939.990234 0)"/>
   </g>
   <!-- (&gt;0 beats ARIMA; gap widens as strikes get sparser) -->
   <g style="fill: #262626" transform="translate(288.458 31.635125) scale(0.13 -0.13)">
    <defs>
     <path id="DejaVuSans-3e" d="M 678 3150 
L 678 3719 
L 4684 2266 
L 4684 1747 
L 678 294 
L 678 863 
L 3897 2003 
L 678 3150 
z
" transform="scale(0.015625)"/>
     <path id="DejaVuSans-3b" d="M 750 3309 
L 1409 3309 
L 1409 2516 
L 750 2516 
L 750 3309 
z
M 750 794 
L 1409 794 
L 1409 256 
L 897 -744 
L 494 -744 
L 750 256 
L 750 794 
z
" transform="scale(0.015625)"/>
    </defs>
    <use xlink:href="#DejaVuSans-28"/>
    <use xlink:href="#DejaVuSans-3e" transform="translate(39.013672 0)"/>
    <use xlink:href="#DejaVuSans-30" transform="translate(122.802734 0)"/>
    <use xlink:href="#DejaVuSans-20" transform="translate(186.425781 0)"/>
    <use xlink:href="#DejaVuSans-62" transform="translate(218.212891 0)"/>
    <use xlink:href="#DejaVuSans-65" transform="translate(281.689453 0)"/>
    <use xlink:href="#DejaVuSans-61" transform="translate(343.212891 0)"/>
    <use xlink:href="#DejaVuSans-74" transform="translate(404.492188 0)"/>
    <use xlink:href="#DejaVuSans-73" transform="translate(443.701172 0)"/>
    <use xlink:href="#DejaVuSans-20" transform="translate(495.800781 0)"/>
    <use xlink:href="#DejaVuSans-41" transform="translate(527.587891 0)"/>
    <use xlink:href="#DejaVuSans-52" transform="translate(595.996094 0)"/>
    <use xlink:href="#DejaVuSans-49" transform="translate(665.478516 0)"/>
    <use xlink:href="#DejaVuSans-4d" transform="translate(694.970703 0)"/>
    <use xlink:href="#DejaVuSans-41" transform="translate(781.25 0)"/>
    <use xlink:href="#DejaVuSans-3b" transform="translate(849.658203 0)"/>
    <use xlink:href="#DejaVuSans-20" transform="translate(883.349609 0)"/>
    <use xlink:href="#DejaVuSans-67" transform="translate(915.136719 0)"/>
    <use xlink:href="#DejaVuSans-61" transform="translate(978.613281 0)"/>
    <use xlink:href="#DejaVuSans-70" transform="translate(1039.892578 0)"/>
    <use xlink:href="#DejaVuSans-20" transform="translate(1103.369141 0)"/>
    <use xlink:href="#DejaVuSans-77" transform="translate(1135.15625 0)"/>
    <use xlink:href="#DejaVuSans-69" transform="translate(1216.943359 0)"/>
    <use xlink:href="#DejaVuSans-64" transform="translate(1244.726562 0)"/>
    <use xlink:href="#DejaVuSans-65" transform="translate(1308.203125 0)"/>
    <use xlink:href="#DejaVuSans-6e" transform="translate(1369.726562 0)"/>
    <use xlink:href="#DejaVuSans-73" transform="translate(1433.105469 0)"/>
    <use xlink:href="#DejaVuSans-20" transform="translate(1485.205078 0)"/>
    <use xlink:href="#DejaVuSans-61" transform="translate(1516.992188 0)"/>
    <use xlink:href="#DejaVuSans-73" transform="translate(1578.271484 0)"/>
    <use xlink:href="#DejaVuSans-20" transform="translate(1630.371094 0)"/>
    <use xlink:href="#DejaVuSans-73" transform="translate(1662.158203 0)"/>
    <use xlink:href="#DejaVuSans-74" transform="translate(1714.257812 0)"/>
    <use xlink:href="#DejaVuSans-72" transform="translate(1753.466797 0)"/>
    <use xlink:href="#DejaVuSans-69" transform="translate(1794.580078 0)"/>
    <use xlink:href="#DejaVuSans-6b" transform="translate(1822.363281 0)"/>
    <use xlink:href="#DejaVuSans-65" transform="translate(1876.648438 0)"/>
    <use xlink:href="#DejaVuSans-73" transform="translate(1938.171875 0)"/>
    <use xlink:href="#DejaVuSans-20" transform="translate(1990.271484 0)"/>
    <use xlink:href="#DejaVuSans-67" transform="translate(2022.058594 0)"/>
    <use xlink:href="#DejaVuSans-65" transform="translate(2085.535156 0)"/>
    <use xlink:href="#DejaVuSans-74" transform="translate(2147.058594 0)"/>
    <use xlink:href="#DejaVuSans-20" transform="translate(2186.267578 0)"/>
    <use xlink:href="#DejaVuSans-73" transform="translate(2218.054688 0)"/>
    <use xlink:href="#DejaVuSans-70" transform="translate(2270.154297 0)"/>
    <use xlink:href="#DejaVuSans-61" transform="translate(2333.630859 0)"/>
    <use xlink:href="#DejaVuSans-72" transform="translate(2394.910156 0)"/>
    <use xlink:href="#DejaVuSans-73" transform="translate(2436.023438 0)"/>
    <use xlink:href="#DejaVuSans-65" transform="translate(2488.123047 0)"/>
    <use xlink:href="#DejaVuSans-72" transform="translate(2549.646484 0)"/>
    <use xlink:href="#DejaVuSans-29" transform="translate(2590.759766 0)"/>
   </g>
  </g>
 </g>
 <defs>
  <clipPath id="p47b99018cd">
   <rect x="46.90375" y="69.936" width="319.428165" height="244.276"/>
  </clipPath>
  <clipPath id="pb9935c283b">
   <rect x="445.646312" y="69.936" width="319.428165" height="244.276"/>
  </clipPath>
 </defs>
</svg>
