<?xml version="1.0" encoding="utf-8" standalone="no"?>
<!DOCTYPE svg PUBLIC "-//W3C//DTD SVG 1.1//EN"
  "http://www.w3.org/Graphics/SVG/1.1/DTD/svg11.dtd">
<svg xmlns:xlink="http://www.w3.org/1999/xlink" width="719.004687pt" height="408.719687pt" viewBox="0 0 719.004687 408.719687" xmlns="http://www.w3.org/2000/svg" version="1.1">
 <metadata>
  <rdf:RDF xmlns:dc="http://purl.org/dc/elements/1.1/" xmlns:cc="http://creativecommons.org/ns#" xmlns:rdf="http://www.w3.org/1999/02/22-rdf-syntax-ns#">
   <cc:Work>
    <dc:type rdf:resource="http://purl.org/dc/dcmitype/StillImage"/>
    <dc:date>2026-05-21T13:09:37.598882</dc:date>
    <dc:format>image/svg+xml</dc:format>
    <dc:creator>
     <cc:Agent>
      <dc:title>Matplotlib v3.10.9, https://matplotlib.org/</dc:title>
     </cc:Agent>
    </dc:creator>
   </cc:Work>
  </rdf:RDF>
 </metadata>
 <defs>
  <style type="text/css">*{stroke-linejoin: round; stroke-linecap: butt}</style>
 </defs>
 <g id="figure_1">
  <g id="patch_1">
   <path d="M 0 408.719687 
L 719.004687 408.719687 
L 719.004687 0 
L 0 0 
z
" style="fill: #ffffff"/>
  </g>
  <g id="axes_1">
   <g id="patch_2">
    <path d="M 63.804688 365.76 
L 711.804688 365.76 
L 711.804688 106.56 
L 63.804688 106.56 
z
" style="fill: #ffffff"/>
   </g>
   <g id="matplotlib.axis_1">
    <g id="xtick_1">
     <g id="line2d_1">
      <path d="M 93.259233 365.76 
L 93.259233 106.56 
" clip-path="url(#p077d3f0638)" style="fill: none; stroke-dasharray: 3.7,1.6; stroke-dashoffset: 0; stroke: #cccccc; stroke-opacity: 0.6"/>
     </g>
     <g id="text_1">
      <!-- 1 -->
      <g style="fill: #262626" transform="translate(89.759858 383.618281) scale(0.11 -0.11)">
       <defs>
        <path id="DejaVuSans-31" d="M 794 531 
L 1825 531 
L 1825 4091 
L 703 3866 
L 703 4441 
L 1819 4666 
L 2450 4666 
L 2450 531 
L 3481 531 
L 3481 0 
L 794 0 
L 794 531 
z
" transform="scale(0.015625)"/>
       </defs>
       <use xlink:href="#DejaVuSans-31"/>
      </g>
     </g>
    </g>
    <g id="xtick_2">
     <g id="line2d_2">
      <path d="M 191.441051 365.76 
L 191.441051 106.56 
" clip-path="url(#p077d3f0638)" style="fill: none; stroke-dasharray: 3.7,1.6; stroke-dashoffset: 0; stroke: #cccccc; stroke-opacity: 0.6"/>
     </g>
     <g id="text_2">
      <!-- 2 -->
      <g style="fill: #262626" transform="translate(187.941676 383.618281) scale(0.11 -0.11)">
       <defs>
        <path id="DejaVuSans-32" d="M 1228 531 
L 3431 531 
L 3431 0 
L 469 0 
L 469 531 
Q 828 903 1448 1529 
Q 2069 2156 2228 2338 
Q 2531 2678 2651 2914 
Q 2772 3150 2772 3378 
Q 2772 3750 2511 3984 
Q 2250 4219 1831 4219 
Q 1534 4219 1204 4116 
Q 875 4013 500 3803 
L 500 4441 
Q 881 4594 1212 4672 
Q 1544 4750 1819 4750 
Q 2544 4750 2975 4387 
Q 3406 4025 3406 3419 
Q 3406 3131 3298 2873 
Q 3191 2616 2906 2266 
Q 2828 2175 2409 1742 
Q 1991 1309 1228 531 
z
" transform="scale(0.015625)"/>
       </defs>
       <use xlink:href="#DejaVuSans-32"/>
      </g>
     </g>
    </g>
    <g id="xtick_3">
     <g id="line2d_3">
      <path d="M 289.622869 365.76 
L 289.622869 106.56 
" clip-path="url(#p077d3f0638)" style="fill: none; stroke-dasharray: 3.7,1.6; stroke-dashoffset: 0; stroke: #cccccc; stroke-opacity: 0.6"/>
     </g>
     <g id="text_3">
      <!-- 3 -->
      <g style="fill: #262626" transform="translate(286.123494 383.618281) scale(0.11 -0.11)">
       <defs>
        <path id="DejaVuSans-33" d="M 2597 2516 
Q 3050 2419 3304 2112 
Q 3559 1806 3559 1356 
Q 3559 666 3084 287 
Q 2609 -91 1734 -91 
Q 1441 -91 1130 -33 
Q 819 25 488 141 
L 488 750 
Q 750 597 1062 519 
Q 1375 441 1716 441 
Q 2309 441 2620 675 
Q 2931 909 2931 1356 
Q 2931 1769 2642 2001 
Q 2353 2234 1838 2234 
L 1294 2234 
L 1294 2753 
L 1863 2753 
Q 2328 2753 2575 2939 
Q 2822 3125 2822 3475 
Q 2822 3834 2567 4026 
Q 2313 4219 1838 4219 
Q 1578 4219 1281 4162 
Q 984 4106 628 3988 
L 628 4550 
Q 988 4650 1302 4700 
Q 1616 4750 1894 4750 
Q 2613 4750 3031 4423 
Q 3450 4097 3450 3541 
Q 3450 3153 3228 2886 
Q 3006 2619 2597 2516 
z
" transform="scale(0.015625)"/>
       </defs>
       <use xlink:href="#DejaVuSans-33"/>
      </g>
     </g>
    </g>
    <g id="xtick_4">
     <g id="line2d_4">
      <path d="M 387.804688 365.76 
L 387.804688 106.56 
" clip-path="url(#p077d3f0638)" style="fill: none; stroke-dasharray: 3.7,1.6; stroke-dashoffset: 0; stroke: #cccccc; stroke-opacity: 0.6"/>
     </g>
     <g id="text_4">
      <!-- 4 -->
      <g style="fill: #262626" transform="translate(384.305313 383.618281) scale(0.11 -0.11)">
       <defs>
        <path id="DejaVuSans-34" d="M 2419 4116 
L 825 1625 
L 2419 1625 
L 2419 4116 
z
M 2253 4666 
L 3047 4666 
L 3047 1625 
L 3713 1625 
L 3713 1100 
L 3047 1100 
L 3047 0 
L 2419 0 
L 2419 1100 
L 313 1100 
L 313 1709 
L 2253 4666 
z
" transform="scale(0.015625)"/>
       </defs>
       <use xlink:href="#DejaVuSans-34"/>
      </g>
     </g>
    </g>
    <g id="xtick_5">
     <g id="line2d_5">
      <path d="M 485.986506 365.76 
L 485.986506 106.56 
" clip-path="url(#p077d3f0638)" style="fill: none; stroke-dasharray: 3.7,1.6; stroke-dashoffset: 0; stroke: #cccccc; stroke-opacity: 0.6"/>
     </g>
     <g id="text_5">
      <!-- 5 -->
      <g style="fill: #262626" transform="translate(482.487131 383.618281) scale(0.11 -0.11)">
       <defs>
        <path id="DejaVuSans-35" d="M 691 4666 
L 3169 4666 
L 3169 4134 
L 1269 4134 
L 1269 2991 
Q 1406 3038 1543 3061 
Q 1681 3084 1819 3084 
Q 2600 3084 3056 2656 
Q 3513 2228 3513 1497 
Q 3513 744 3044 326 
Q 2575 -91 1722 -91 
Q 1428 -91 1123 -41 
Q 819 9 494 109 
L 494 744 
Q 775 591 1075 516 
Q 1375 441 1709 441 
Q 2250 441 2565 725 
Q 2881 1009 2881 1497 
Q 2881 1984 2565 2268 
Q 2250 2553 1709 2553 
Q 1456 2553 1204 2497 
Q 953 2441 691 2322 
L 691 4666 
z
" transform="scale(0.015625)"/>
       </defs>
       <use xlink:href="#DejaVuSans-35"/>
      </g>
     </g>
    </g>
    <g id="xtick_6">
     <g id="line2d_6">
      <path d="M 584.168324 365.76 
L 584.168324 106.56 
" clip-path="url(#p077d3f0638)" style="fill: none; stroke-dasharray: 3.7,1.6; stroke-dashoffset: 0; stroke: #cccccc; stroke-opacity: 0.6"/>
     </g>
     <g id="text_6">
      <!-- 6 -->
      <g style="fill: #262626" transform="translate(580.668949 383.618281) scale(0.11 -0.11)">
       <defs>
        <path id="DejaVuSans-36" d="M 2113 2584 
Q 1688 2584 1439 2293 
Q 1191 2003 1191 1497 
Q 1191 994 1439 701 
Q 1688 409 2113 409 
Q 2538 409 2786 701 
Q 3034 994 3034 1497 
Q 3034 2003 2786 2293 
Q 2538 2584 2113 2584 
z
M 3366 4563 
L 3366 3988 
Q 3128 4100 2886 4159 
Q 2644 4219 2406 4219 
Q 1781 4219 1451 3797 
Q 1122 3375 1075 2522 
Q 1259 2794 1537 2939 
Q 1816 3084 2150 3084 
Q 2853 3084 3261 2657 
Q 3669 2231 3669 1497 
Q 3669 778 3244 343 
Q 2819 -91 2113 -91 
Q 1303 -91 875 529 
Q 447 1150 447 2328 
Q 447 3434 972 4092 
Q 1497 4750 2381 4750 
Q 2619 4750 2861 4703 
Q 3103 4656 3366 4563 
z
" transform="scale(0.015625)"/>
       </defs>
       <use xlink:href="#DejaVuSans-36"/>
      </g>
     </g>
    </g>
    <g id="xtick_7">
     <g id="line2d_7">
      <path d="M 682.350142 365.76 
L 682.350142 106.56 
" clip-path="url(#p077d3f0638)" style="fill: none; stroke-dasharray: 3.7,1.6; stroke-dashoffset: 0; stroke: #cccccc; stroke-opacity: 0.6"/>
     </g>
     <g id="text_7">
      <!-- 7 -->
      <g style="fill: #262626" transform="translate(678.850767 383.618281) scale(0.11 -0.11)">
       <defs>
        <path id="DejaVuSans-37" d="M 525 4666 
L 3525 4666 
L 3525 4397 
L 1831 0 
L 1172 0 
L 2766 4134 
L 525 4134 
L 525 4666 
z
" transform="scale(0.015625)"/>
       </defs>
       <use xlink:href="#DejaVuSans-37"/>
      </g>
     </g>
    </g>
    <g id="text_8">
     <!-- Horizon -->
     <g style="fill: #262626" transform="translate(364.865 399.024062) scale(0.12 -0.12)">
      <defs>
       <path id="DejaVuSans-48" d="M 628 4666 
L 1259 4666 
L 1259 2753 
L 3553 2753 
L 3553 4666 
L 4184 4666 
L 4184 0 
L 3553 0 
L 3553 2222 
L 1259 2222 
L 1259 0 
L 628 0 
L 628 4666 
z
" transform="scale(0.015625)"/>
       <path id="DejaVuSans-6f" d="M 1959 3097 
Q 1497 3097 1228 2736 
Q 959 2375 959 1747 
Q 959 1119 1226 758 
Q 1494 397 1959 397 
Q 2419 397 2687 759 
Q 2956 1122 2956 1747 
Q 2956 2369 2687 2733 
Q 2419 3097 1959 3097 
z
M 1959 3584 
Q 2709 3584 3137 3096 
Q 3566 2609 3566 1747 
Q 3566 888 3137 398 
Q 2709 -91 1959 -91 
Q 1206 -91 779 398 
Q 353 888 353 1747 
Q 353 2609 779 3096 
Q 1206 3584 1959 3584 
z
" transform="scale(0.015625)"/>
       <path id="DejaVuSans-72" d="M 2631 2963 
Q 2534 3019 2420 3045 
Q 2306 3072 2169 3072 
Q 1681 3072 1420 2755 
Q 1159 2438 1159 1844 
L 1159 0 
L 581 0 
L 581 3500 
L 1159 3500 
L 1159 2956 
Q 1341 3275 1631 3429 
Q 1922 3584 2338 3584 
Q 2397 3584 2469 3576 
Q 2541 3569 2628 3553 
L 2631 2963 
z
" transform="scale(0.015625)"/>
       <path id="DejaVuSans-69" d="M 603 3500 
L 1178 3500 
L 1178 0 
L 603 0 
L 603 3500 
z
M 603 4863 
L 1178 4863 
L 1178 4134 
L 603 4134 
L 603 4863 
z
" transform="scale(0.015625)"/>
       <path id="DejaVuSans-7a" d="M 353 3500 
L 3084 3500 
L 3084 2975 
L 922 459 
L 3084 459 
L 3084 0 
L 275 0 
L 275 525 
L 2438 3041 
L 353 3041 
L 353 3500 
z
" transform="scale(0.015625)"/>
       <path id="DejaVuSans-6e" d="M 3513 2113 
L 3513 0 
L 2938 0 
L 2938 2094 
Q 2938 2591 2744 2837 
Q 2550 3084 2163 3084 
Q 1697 3084 1428 2787 
Q 1159 2491 1159 1978 
L 1159 0 
L 581 0 
L 581 3500 
L 1159 3500 
L 1159 2956 
Q 1366 3272 1645 3428 
Q 1925 3584 2291 3584 
Q 2894 3584 3203 3211 
Q 3513 2838 3513 2113 
z
" transform="scale(0.015625)"/>
      </defs>
      <use xlink:href="#DejaVuSans-48"/>
      <use xlink:href="#DejaVuSans-6f" transform="translate(75.195312 0)"/>
      <use xlink:href="#DejaVuSans-72" transform="translate(136.376953 0)"/>
      <use xlink:href="#DejaVuSans-69" transform="translate(177.490234 0)"/>
      <use xlink:href="#DejaVuSans-7a" transform="translate(205.273438 0)"/>
      <use xlink:href="#DejaVuSans-6f" transform="translate(257.763672 0)"/>
      <use xlink:href="#DejaVuSans-6e" transform="translate(318.945312 0)"/>
     </g>
    </g>
   </g>
   <g id="matplotlib.axis_2">
    <g id="ytick_1">
     <g id="line2d_8">
      <path d="M 63.804688 359.267829 
L 711.804688 359.267829 
" clip-path="url(#p077d3f0638)" style="fill: none; stroke-dasharray: 3.7,1.6; stroke-dashoffset: 0; stroke: #cccccc; stroke-opacity: 0.6"/>
     </g>
     <g id="text_9">
      <!-- 0.700 -->
      <g style="fill: #262626" transform="translate(22.81375 363.44697) scale(0.11 -0.11)">
       <defs>
        <path id="DejaVuSans-30" d="M 2034 4250 
Q 1547 4250 1301 3770 
Q 1056 3291 1056 2328 
Q 1056 1369 1301 889 
Q 1547 409 2034 409 
Q 2525 409 2770 889 
Q 3016 1369 3016 2328 
Q 3016 3291 2770 3770 
Q 2525 4250 2034 4250 
z
M 2034 4750 
Q 2819 4750 3233 4129 
Q 3647 3509 3647 2328 
Q 3647 1150 3233 529 
Q 2819 -91 2034 -91 
Q 1250 -91 836 529 
Q 422 1150 422 2328 
Q 422 3509 836 4129 
Q 1250 4750 2034 4750 
z
" transform="scale(0.015625)"/>
        <path id="DejaVuSans-2e" d="M 684 794 
L 1344 794 
L 1344 0 
L 684 0 
L 684 794 
z
" transform="scale(0.015625)"/>
       </defs>
       <use xlink:href="#DejaVuSans-30"/>
       <use xlink:href="#DejaVuSans-2e" transform="translate(63.623047 0)"/>
       <use xlink:href="#DejaVuSans-37" transform="translate(95.410156 0)"/>
       <use xlink:href="#DejaVuSans-30" transform="translate(159.033203 0)"/>
       <use xlink:href="#DejaVuSans-30" transform="translate(222.65625 0)"/>
      </g>
     </g>
    </g>
    <g id="ytick_2">
     <g id="line2d_9">
      <path d="M 63.804688 328.827254 
L 711.804688 328.827254 
" clip-path="url(#p077d3f0638)" style="fill: none; stroke-dasharray: 3.7,1.6; stroke-dashoffset: 0; stroke: #cccccc; stroke-opacity: 0.6"/>
     </g>
     <g id="text_10">
      <!-- 0.725 -->
      <g style="fill: #262626" transform="translate(22.81375 333.006395) scale(0.11 -0.11)">
       <use xlink:href="#DejaVuSans-30"/>
       <use xlink:href="#DejaVuSans-2e" transform="translate(63.623047 0)"/>
       <use xlink:href="#DejaVuSans-37" transform="translate(95.410156 0)"/>
       <use xlink:href="#DejaVuSans-32" transform="translate(159.033203 0)"/>
       <use xlink:href="#DejaVuSans-35" transform="translate(222.65625 0)"/>
      </g>
     </g>
    </g>
    <g id="ytick_3">
     <g id="line2d_10">
      <path d="M 63.804688 298.38668 
L 711.804688 298.38668 
" clip-path="url(#p077d3f0638)" style="fill: none; stroke-dasharray: 3.7,1.6; stroke-dashoffset: 0; stroke: #cccccc; stroke-opacity: 0.6"/>
     </g>
     <g id="text_11">
      <!-- 0.750 -->
      <g style="fill: #262626" transform="translate(22.81375 302.56582) scale(0.11 -0.11)">
       <use xlink:href="#DejaVuSans-30"/>
       <use xlink:href="#DejaVuSans-2e" transform="translate(63.623047 0)"/>
       <use xlink:href="#DejaVuSans-37" transform="translate(95.410156 0)"/>
       <use xlink:href="#DejaVuSans-35" transform="translate(159.033203 0)"/>
       <use xlink:href="#DejaVuSans-30" transform="translate(222.65625 0)"/>
      </g>
     </g>
    </g>
    <g id="ytick_4">
     <g id="line2d_11">
      <path d="M 63.804688 267.946105 
L 711.804688 267.946105 
" clip-path="url(#p077d3f0638)" style="fill: none; stroke-dasharray: 3.7,1.6; stroke-dashoffset: 0; stroke: #cccccc; stroke-opacity: 0.6"/>
     </g>
     <g id="text_12">
      <!-- 0.775 -->
      <g style="fill: #262626" transform="translate(22.81375 272.125246) scale(0.11 -0.11)">
       <use xlink:href="#DejaVuSans-30"/>
       <use xlink:href="#DejaVuSans-2e" transform="translate(63.623047 0)"/>
       <use xlink:href="#DejaVuSans-37" transform="translate(95.410156 0)"/>
       <use xlink:href="#DejaVuSans-37" transform="translate(159.033203 0)"/>
       <use xlink:href="#DejaVuSans-35" transform="translate(222.65625 0)"/>
      </g>
     </g>
    </g>
    <g id="ytick_5">
     <g id="line2d_12">
      <path d="M 63.804688 237.505531 
L 711.804688 237.505531 
" clip-path="url(#p077d3f0638)" style="fill: none; stroke-dasharray: 3.7,1.6; stroke-dashoffset: 0; stroke: #cccccc; stroke-opacity: 0.6"/>
     </g>
     <g id="text_13">
      <!-- 0.800 -->
      <g style="fill: #262626" transform="translate(22.81375 241.684671) scale(0.11 -0.11)">
       <defs>
        <path id="DejaVuSans-38" d="M 2034 2216 
Q 1584 2216 1326 1975 
Q 1069 1734 1069 1313 
Q 1069 891 1326 650 
Q 1584 409 2034 409 
Q 2484 409 2743 651 
Q 3003 894 3003 1313 
Q 3003 1734 2745 1975 
Q 2488 2216 2034 2216 
z
M 1403 2484 
Q 997 2584 770 2862 
Q 544 3141 544 3541 
Q 544 4100 942 4425 
Q 1341 4750 2034 4750 
Q 2731 4750 3128 4425 
Q 3525 4100 3525 3541 
Q 3525 3141 3298 2862 
Q 3072 2584 2669 2484 
Q 3125 2378 3379 2068 
Q 3634 1759 3634 1313 
Q 3634 634 3220 271 
Q 2806 -91 2034 -91 
Q 1263 -91 848 271 
Q 434 634 434 1313 
Q 434 1759 690 2068 
Q 947 2378 1403 2484 
z
M 1172 3481 
Q 1172 3119 1398 2916 
Q 1625 2713 2034 2713 
Q 2441 2713 2670 2916 
Q 2900 3119 2900 3481 
Q 2900 3844 2670 4047 
Q 2441 4250 2034 4250 
Q 1625 4250 1398 4047 
Q 1172 3844 1172 3481 
z
" transform="scale(0.015625)"/>
       </defs>
       <use xlink:href="#DejaVuSans-30"/>
       <use xlink:href="#DejaVuSans-2e" transform="translate(63.623047 0)"/>
       <use xlink:href="#DejaVuSans-38" transform="translate(95.410156 0)"/>
       <use xlink:href="#DejaVuSans-30" transform="translate(159.033203 0)"/>
       <use xlink:href="#DejaVuSans-30" transform="translate(222.65625 0)"/>
      </g>
     </g>
    </g>
    <g id="ytick_6">
     <g id="line2d_13">
      <path d="M 63.804688 207.064956 
L 711.804688 207.064956 
" clip-path="url(#p077d3f0638)" style="fill: none; stroke-dasharray: 3.7,1.6; stroke-dashoffset: 0; stroke: #cccccc; stroke-opacity: 0.6"/>
     </g>
     <g id="text_14">
      <!-- 0.825 -->
      <g style="fill: #262626" transform="translate(22.81375 211.244097) scale(0.11 -0.11)">
       <use xlink:href="#DejaVuSans-30"/>
       <use xlink:href="#DejaVuSans-2e" transform="translate(63.623047 0)"/>
       <use xlink:href="#DejaVuSans-38" transform="translate(95.410156 0)"/>
       <use xlink:href="#DejaVuSans-32" transform="translate(159.033203 0)"/>
       <use xlink:href="#DejaVuSans-35" transform="translate(222.65625 0)"/>
      </g>
     </g>
    </g>
    <g id="ytick_7">
     <g id="line2d_14">
      <path d="M 63.804688 176.624382 
L 711.804688 176.624382 
" clip-path="url(#p077d3f0638)" style="fill: none; stroke-dasharray: 3.7,1.6; stroke-dashoffset: 0; stroke: #cccccc; stroke-opacity: 0.6"/>
     </g>
     <g id="text_15">
      <!-- 0.850 -->
      <g style="fill: #262626" transform="translate(22.81375 180.803522) scale(0.11 -0.11)">
       <use xlink:href="#DejaVuSans-30"/>
       <use xlink:href="#DejaVuSans-2e" transform="translate(63.623047 0)"/>
       <use xlink:href="#DejaVuSans-38" transform="translate(95.410156 0)"/>
       <use xlink:href="#DejaVuSans-35" transform="translate(159.033203 0)"/>
       <use xlink:href="#DejaVuSans-30" transform="translate(222.65625 0)"/>
      </g>
     </g>
    </g>
    <g id="ytick_8">
     <g id="line2d_15">
      <path d="M 63.804688 146.183807 
L 711.804688 146.183807 
" clip-path="url(#p077d3f0638)" style="fill: none; stroke-dasharray: 3.7,1.6; stroke-dashoffset: 0; stroke: #cccccc; stroke-opacity: 0.6"/>
     </g>
     <g id="text_16">
      <!-- 0.875 -->
      <g style="fill: #262626" transform="translate(22.81375 150.362948) scale(0.11 -0.11)">
       <use xlink:href="#DejaVuSans-30"/>
       <use xlink:href="#DejaVuSans-2e" transform="translate(63.623047 0)"/>
       <use xlink:href="#DejaVuSans-38" transform="translate(95.410156 0)"/>
       <use xlink:href="#DejaVuSans-37" transform="translate(159.033203 0)"/>
       <use xlink:href="#DejaVuSans-35" transform="translate(222.65625 0)"/>
      </g>
     </g>
    </g>
    <g id="ytick_9">
     <g id="line2d_16">
      <path d="M 63.804688 115.743233 
L 711.804688 115.743233 
" clip-path="url(#p077d3f0638)" style="fill: none; stroke-dasharray: 3.7,1.6; stroke-dashoffset: 0; stroke: #cccccc; stroke-opacity: 0.6"/>
     </g>
     <g id="text_17">
      <!-- 0.900 -->
      <g style="fill: #262626" transform="translate(22.81375 119.922373) scale(0.11 -0.11)">
       <defs>
        <path id="DejaVuSans-39" d="M 703 97 
L 703 672 
Q 941 559 1184 500 
Q 1428 441 1663 441 
Q 2288 441 2617 861 
Q 2947 1281 2994 2138 
Q 2813 1869 2534 1725 
Q 2256 1581 1919 1581 
Q 1219 1581 811 2004 
Q 403 2428 403 3163 
Q 403 3881 828 4315 
Q 1253 4750 1959 4750 
Q 2769 4750 3195 4129 
Q 3622 3509 3622 2328 
Q 3622 1225 3098 567 
Q 2575 -91 1691 -91 
Q 1453 -91 1209 -44 
Q 966 3 703 97 
z
M 1959 2075 
Q 2384 2075 2632 2365 
Q 2881 2656 2881 3163 
Q 2881 3666 2632 3958 
Q 2384 4250 1959 4250 
Q 1534 4250 1286 3958 
Q 1038 3666 1038 3163 
Q 1038 2656 1286 2365 
Q 1534 2075 1959 2075 
z
" transform="scale(0.015625)"/>
       </defs>
       <use xlink:href="#DejaVuSans-30"/>
       <use xlink:href="#DejaVuSans-2e" transform="translate(63.623047 0)"/>
       <use xlink:href="#DejaVuSans-39" transform="translate(95.410156 0)"/>
       <use xlink:href="#DejaVuSans-30" transform="translate(159.033203 0)"/>
       <use xlink:href="#DejaVuSans-30" transform="translate(222.65625 0)"/>
      </g>
     </g>
    </g>
    <g id="text_18">
     <!-- MAE -->
     <g style="fill: #262626" transform="translate(16.318125 249.2325) rotate(-90) scale(0.12 -0.12)">
      <defs>
       <path id="DejaVuSans-4d" d="M 628 4666 
L 1569 4666 
L 2759 1491 
L 3956 4666 
L 4897 4666 
L 4897 0 
L 4281 0 
L 4281 4097 
L 3078 897 
L 2444 897 
L 1241 4097 
L 1241 0 
L 628 0 
L 628 4666 
z
" transform="scale(0.015625)"/>
       <path id="DejaVuSans-41" d="M 2188 4044 
L 1331 1722 
L 3047 1722 
L 2188 4044 
z
M 1831 4666 
L 2547 4666 
L 4325 0 
L 3669 0 
L 3244 1197 
L 1141 1197 
L 716 0 
L 50 0 
L 1831 4666 
z
" transform="scale(0.015625)"/>
       <path id="DejaVuSans-45" d="M 628 4666 
L 3578 4666 
L 3578 4134 
L 1259 4134 
L 1259 2753 
L 3481 2753 
L 3481 2222 
L 1259 2222 
L 1259 531 
L 3634 531 
L 3634 0 
L 628 0 
L 628 4666 
z
" transform="scale(0.015625)"/>
      </defs>
      <use xlink:href="#DejaVuSans-4d"/>
      <use xlink:href="#DejaVuSans-41" transform="translate(86.279297 0)"/>
      <use xlink:href="#DejaVuSans-45" transform="translate(154.6875 0)"/>
     </g>
    </g>
   </g>
   <g id="FillBetweenPolyCollection_1"/>
   <g id="FillBetweenPolyCollection_2"/>
   <g id="FillBetweenPolyCollection_3"/>
   <g id="FillBetweenPolyCollection_4"/>
   <g id="FillBetweenPolyCollection_5"/>
   <g id="FillBetweenPolyCollection_6"/>
   <g id="line2d_17">
    <path d="M 93.259233 276.076037 
L 191.441051 280.860508 
L 289.622869 279.711613 
L 387.804688 282.286329 
L 485.986506 273.296657 
L 584.168324 271.164829 
L 682.350142 272.666936 
" clip-path="url(#p077d3f0638)" style="fill: none; stroke: #1f77b4; stroke-width: 1.5; stroke-linecap: round"/>
    <defs>
     <path id="m28b74e110f" d="M 0 3 
C 0.795609 3 1.55874 2.683901 2.12132 2.12132 
C 2.683901 1.55874 3 0.795609 3 0 
C 3 -0.795609 2.683901 -1.55874 2.12132 -2.12132 
C 1.55874 -2.683901 0.795609 -3 0 -3 
C -0.795609 -3 -1.55874 -2.683901 -2.12132 -2.12132 
C -2.683901 -1.55874 -3 -0.795609 -3 0 
C -3 0.795609 -2.683901 1.55874 -2.12132 2.12132 
C -1.55874 2.683901 -0.795609 3 0 3 
z
" style="stroke: #ffffff; stroke-width: 0.75"/>
    </defs>
    <g clip-path="url(#p077d3f0638)">
     <use xlink:href="#m28b74e110f" x="93.259233" y="276.076037" style="fill: #1f77b4; stroke: #ffffff; stroke-width: 0.75"/>
     <use xlink:href="#m28b74e110f" x="191.441051" y="280.860508" style="fill: #1f77b4; stroke: #ffffff; stroke-width: 0.75"/>
     <use xlink:href="#m28b74e110f" x="289.622869" y="279.711613" style="fill: #1f77b4; stroke: #ffffff; stroke-width: 0.75"/>
     <use xlink:href="#m28b74e110f" x="387.804688" y="282.286329" style="fill: #1f77b4; stroke: #ffffff; stroke-width: 0.75"/>
     <use xlink:href="#m28b74e110f" x="485.986506" y="273.296657" style="fill: #1f77b4; stroke: #ffffff; stroke-width: 0.75"/>
     <use xlink:href="#m28b74e110f" x="584.168324" y="271.164829" style="fill: #1f77b4; stroke: #ffffff; stroke-width: 0.75"/>
     <use xlink:href="#m28b74e110f" x="682.350142" y="272.666936" style="fill: #1f77b4; stroke: #ffffff; stroke-width: 0.75"/>
    </g>
   </g>
   <g id="line2d_18">
    <path d="M 93.259233 353.978182 
L 191.441051 343.314728 
L 289.622869 341.054712 
L 387.804688 341.993872 
L 485.986506 341.482054 
L 584.168324 340.382827 
L 682.350142 336.658874 
" clip-path="url(#p077d3f0638)" style="fill: none; stroke: #aec7e8; stroke-width: 1.5; stroke-linecap: round"/>
    <defs>
     <path id="mf5f03d3ecc" d="M 0 3 
C 0.795609 3 1.55874 2.683901 2.12132 2.12132 
C 2.683901 1.55874 3 0.795609 3 0 
C 3 -0.795609 2.683901 -1.55874 2.12132 -2.12132 
C 1.55874 -2.683901 0.795609 -3 0 -3 
C -0.795609 -3 -1.55874 -2.683901 -2.12132 -2.12132 
C -2.683901 -1.55874 -3 -0.795609 -3 0 
C -3 0.795609 -2.683901 1.55874 -2.12132 2.12132 
C -1.55874 2.683901 -0.795609 3 0 3 
z
" style="stroke: #ffffff; stroke-width: 0.75"/>
    </defs>
    <g clip-path="url(#p077d3f0638)">
     <use xlink:href="#mf5f03d3ecc" x="93.259233" y="353.978182" style="fill: #aec7e8; stroke: #ffffff; stroke-width: 0.75"/>
     <use xlink:href="#mf5f03d3ecc" x="191.441051" y="343.314728" style="fill: #aec7e8; stroke: #ffffff; stroke-width: 0.75"/>
     <use xlink:href="#mf5f03d3ecc" x="289.622869" y="341.054712" style="fill: #aec7e8; stroke: #ffffff; stroke-width: 0.75"/>
     <use xlink:href="#mf5f03d3ecc" x="387.804688" y="341.993872" style="fill: #aec7e8; stroke: #ffffff; stroke-width: 0.75"/>
     <use xlink:href="#mf5f03d3ecc" x="485.986506" y="341.482054" style="fill: #aec7e8; stroke: #ffffff; stroke-width: 0.75"/>
     <use xlink:href="#mf5f03d3ecc" x="584.168324" y="340.382827" style="fill: #aec7e8; stroke: #ffffff; stroke-width: 0.75"/>
     <use xlink:href="#mf5f03d3ecc" x="682.350142" y="336.658874" style="fill: #aec7e8; stroke: #ffffff; stroke-width: 0.75"/>
    </g>
   </g>
   <g id="line2d_19">
    <path d="M 93.259233 267.464228 
L 191.441051 260.875398 
L 289.622869 254.394153 
L 387.804688 261.453581 
L 485.986506 245.198002 
L 584.168324 251.468483 
L 682.350142 242.565953 
" clip-path="url(#p077d3f0638)" style="fill: none; stroke: #ff7f0e; stroke-width: 1.5; stroke-linecap: round"/>
    <defs>
     <path id="me362f5e141" d="M 0 3 
C 0.795609 3 1.55874 2.683901 2.12132 2.12132 
C 2.683901 1.55874 3 0.795609 3 0 
C 3 -0.795609 2.683901 -1.55874 2.12132 -2.12132 
C 1.55874 -2.683901 0.795609 -3 0 -3 
C -0.795609 -3 -1.55874 -2.683901 -2.12132 -2.12132 
C -2.683901 -1.55874 -3 -0.795609 -3 0 
C -3 0.795609 -2.683901 1.55874 -2.12132 2.12132 
C -1.55874 2.683901 -0.795609 3 0 3 
z
" style="stroke: #ffffff; stroke-width: 0.75"/>
    </defs>
    <g clip-path="url(#p077d3f0638)">
     <use xlink:href="#me362f5e141" x="93.259233" y="267.464228" style="fill: #ff7f0e; stroke: #ffffff; stroke-width: 0.75"/>
     <use xlink:href="#me362f5e141" x="191.441051" y="260.875398" style="fill: #ff7f0e; stroke: #ffffff; stroke-width: 0.75"/>
     <use xlink:href="#me362f5e141" x="289.622869" y="254.394153" style="fill: #ff7f0e; stroke: #ffffff; stroke-width: 0.75"/>
     <use xlink:href="#me362f5e141" x="387.804688" y="261.453581" style="fill: #ff7f0e; stroke: #ffffff; stroke-width: 0.75"/>
     <use xlink:href="#me362f5e141" x="485.986506" y="245.198002" style="fill: #ff7f0e; stroke: #ffffff; stroke-width: 0.75"/>
     <use xlink:href="#me362f5e141" x="584.168324" y="251.468483" style="fill: #ff7f0e; stroke: #ffffff; stroke-width: 0.75"/>
     <use xlink:href="#me362f5e141" x="682.350142" y="242.565953" style="fill: #ff7f0e; stroke: #ffffff; stroke-width: 0.75"/>
    </g>
   </g>
   <g id="line2d_20">
    <path d="M 93.259233 264.686814 
L 191.441051 279.236987 
L 289.622869 271.766852 
L 387.804688 272.991048 
L 485.986506 265.770302 
L 584.168324 260.172028 
L 682.350142 254.975961 
" clip-path="url(#p077d3f0638)" style="fill: none; stroke: #ffbb78; stroke-width: 1.5; stroke-linecap: round"/>
    <defs>
     <path id="m4f8ebd20ca" d="M 0 3 
C 0.795609 3 1.55874 2.683901 2.12132 2.12132 
C 2.683901 1.55874 3 0.795609 3 0 
C 3 -0.795609 2.683901 -1.55874 2.12132 -2.12132 
C 1.55874 -2.683901 0.795609 -3 0 -3 
C -0.795609 -3 -1.55874 -2.683901 -2.12132 -2.12132 
C -2.683901 -1.55874 -3 -0.795609 -3 0 
C -3 0.795609 -2.683901 1.55874 -2.12132 2.12132 
C -1.55874 2.683901 -0.795609 3 0 3 
z
" style="stroke: #ffffff; stroke-width: 0.75"/>
    </defs>
    <g clip-path="url(#p077d3f0638)">
     <use xlink:href="#m4f8ebd20ca" x="93.259233" y="264.686814" style="fill: #ffbb78; stroke: #ffffff; stroke-width: 0.75"/>
     <use xlink:href="#m4f8ebd20ca" x="191.441051" y="279.236987" style="fill: #ffbb78; stroke: #ffffff; stroke-width: 0.75"/>
     <use xlink:href="#m4f8ebd20ca" x="289.622869" y="271.766852" style="fill: #ffbb78; stroke: #ffffff; stroke-width: 0.75"/>
     <use xlink:href="#m4f8ebd20ca" x="387.804688" y="272.991048" style="fill: #ffbb78; stroke: #ffffff; stroke-width: 0.75"/>
     <use xlink:href="#m4f8ebd20ca" x="485.986506" y="265.770302" style="fill: #ffbb78; stroke: #ffffff; stroke-width: 0.75"/>
     <use xlink:href="#m4f8ebd20ca" x="584.168324" y="260.172028" style="fill: #ffbb78; stroke: #ffffff; stroke-width: 0.75"/>
     <use xlink:href="#m4f8ebd20ca" x="682.350142" y="254.975961" style="fill: #ffbb78; stroke: #ffffff; stroke-width: 0.75"/>
    </g>
   </g>
   <g id="line2d_21">
    <path d="M 93.259233 266.178269 
L 191.441051 267.146672 
L 289.622869 267.961833 
L 387.804688 263.388646 
L 485.986506 260.92933 
L 584.168324 262.528575 
L 682.350142 265.772788 
" clip-path="url(#p077d3f0638)" style="fill: none; stroke: #2ca02c; stroke-width: 1.5; stroke-linecap: round"/>
    <defs>
     <path id="m67040f96c0" d="M 0 3 
C 0.795609 3 1.55874 2.683901 2.12132 2.12132 
C 2.683901 1.55874 3 0.795609 3 0 
C 3 -0.795609 2.683901 -1.55874 2.12132 -2.12132 
C 1.55874 -2.683901 0.795609 -3 0 -3 
C -0.795609 -3 -1.55874 -2.683901 -2.12132 -2.12132 
C -2.683901 -1.55874 -3 -0.795609 -3 0 
C -3 0.795609 -2.683901 1.55874 -2.12132 2.12132 
C -1.55874 2.683901 -0.795609 3 0 3 
z
" style="stroke: #ffffff; stroke-width: 0.75"/>
    </defs>
    <g clip-path="url(#p077d3f0638)">
     <use xlink:href="#m67040f96c0" x="93.259233" y="266.178269" style="fill: #2ca02c; stroke: #ffffff; stroke-width: 0.75"/>
     <use xlink:href="#m67040f96c0" x="191.441051" y="267.146672" style="fill: #2ca02c; stroke: #ffffff; stroke-width: 0.75"/>
     <use xlink:href="#m67040f96c0" x="289.622869" y="267.961833" style="fill: #2ca02c; stroke: #ffffff; stroke-width: 0.75"/>
     <use xlink:href="#m67040f96c0" x="387.804688" y="263.388646" style="fill: #2ca02c; stroke: #ffffff; stroke-width: 0.75"/>
     <use xlink:href="#m67040f96c0" x="485.986506" y="260.92933" style="fill: #2ca02c; stroke: #ffffff; stroke-width: 0.75"/>
     <use xlink:href="#m67040f96c0" x="584.168324" y="262.528575" style="fill: #2ca02c; stroke: #ffffff; stroke-width: 0.75"/>
     <use xlink:href="#m67040f96c0" x="682.350142" y="265.772788" style="fill: #2ca02c; stroke: #ffffff; stroke-width: 0.75"/>
    </g>
   </g>
   <g id="line2d_22">
    <path d="M 93.259233 120.569177 
L 191.441051 118.341818 
L 289.622869 118.713045 
L 387.804688 122.42531 
L 485.986506 124.281442 
L 584.168324 128.736161 
L 682.350142 122.054083 
" clip-path="url(#p077d3f0638)" style="fill: none; stroke: #323232; stroke-opacity: 0.5; stroke-width: 1.5; stroke-linecap: round"/>
    <defs>
     <path id="m58c4395a44" d="M 0 3 
C 0.795609 3 1.55874 2.683901 2.12132 2.12132 
C 2.683901 1.55874 3 0.795609 3 0 
C 3 -0.795609 2.683901 -1.55874 2.12132 -2.12132 
C 1.55874 -2.683901 0.795609 -3 0 -3 
C -0.795609 -3 -1.55874 -2.683901 -2.12132 -2.12132 
C -2.683901 -1.55874 -3 -0.795609 -3 0 
C -3 0.795609 -2.683901 1.55874 -2.12132 2.12132 
C -1.55874 2.683901 -0.795609 3 0 3 
z
" style="stroke: #ffffff; stroke-width: 0.75"/>
    </defs>
    <g clip-path="url(#p077d3f0638)">
     <use xlink:href="#m58c4395a44" x="93.259233" y="120.569177" style="fill: #323232; fill-opacity: 0.5; stroke: #ffffff; stroke-width: 0.75"/>
     <use xlink:href="#m58c4395a44" x="191.441051" y="118.341818" style="fill: #323232; fill-opacity: 0.5; stroke: #ffffff; stroke-width: 0.75"/>
     <use xlink:href="#m58c4395a44" x="289.622869" y="118.713045" style="fill: #323232; fill-opacity: 0.5; stroke: #ffffff; stroke-width: 0.75"/>
     <use xlink:href="#m58c4395a44" x="387.804688" y="122.42531" style="fill: #323232; fill-opacity: 0.5; stroke: #ffffff; stroke-width: 0.75"/>
     <use xlink:href="#m58c4395a44" x="485.986506" y="124.281442" style="fill: #323232; fill-opacity: 0.5; stroke: #ffffff; stroke-width: 0.75"/>
     <use xlink:href="#m58c4395a44" x="584.168324" y="128.736161" style="fill: #323232; fill-opacity: 0.5; stroke: #ffffff; stroke-width: 0.75"/>
     <use xlink:href="#m58c4395a44" x="682.350142" y="122.054083" style="fill: #323232; fill-opacity: 0.5; stroke: #ffffff; stroke-width: 0.75"/>
    </g>
   </g>
   <g id="patch_3">
    <path d="M 63.804688 365.76 
L 63.804688 106.56 
" style="fill: none; stroke: #cccccc; stroke-width: 1.25; stroke-linejoin: miter; stroke-linecap: square"/>
   </g>
   <g id="patch_4">
    <path d="M 711.804688 365.76 
L 711.804688 106.56 
" style="fill: none; stroke: #cccccc; stroke-width: 1.25; stroke-linejoin: miter; stroke-linecap: square"/>
   </g>
   <g id="patch_5">
    <path d="M 63.804687 365.76 
L 711.804688 365.76 
" style="fill: none; stroke: #cccccc; stroke-width: 1.25; stroke-linejoin: miter; stroke-linecap: square"/>
   </g>
   <g id="patch_6">
    <path d="M 63.804687 106.56 
L 711.804688 106.56 
" style="fill: none; stroke: #cccccc; stroke-width: 1.25; stroke-linejoin: miter; stroke-linecap: square"/>
   </g>
   <g id="legend_1">
    <g id="patch_7">
     <path d="M 79.888841 96.378 
L 695.720534 96.378 
Q 697.719734 96.378 697.719734 94.3788 
L 697.719734 50.805611 
Q 697.719734 48.806411 695.720534 48.806411 
L 79.888841 48.806411 
Q 77.889641 48.806411 77.889641 50.805611 
L 77.889641 94.3788 
Q 77.889641 96.378 79.888841 96.378 
z
" style="fill: #ffffff; opacity: 0.8; stroke: #cccccc; stroke-linejoin: miter"/>
    </g>
    <g id="text_19">
     <!-- Models -->
     <g style="fill: #262626" transform="translate(370.193766 60.400209) scale(0.09996 -0.09996)">
      <defs>
       <path id="DejaVuSans-64" d="M 2906 2969 
L 2906 4863 
L 3481 4863 
L 3481 0 
L 2906 0 
L 2906 525 
Q 2725 213 2448 61 
Q 2172 -91 1784 -91 
Q 1150 -91 751 415 
Q 353 922 353 1747 
Q 353 2572 751 3078 
Q 1150 3584 1784 3584 
Q 2172 3584 2448 3432 
Q 2725 3281 2906 2969 
z
M 947 1747 
Q 947 1113 1208 752 
Q 1469 391 1925 391 
Q 2381 391 2643 752 
Q 2906 1113 2906 1747 
Q 2906 2381 2643 2742 
Q 2381 3103 1925 3103 
Q 1469 3103 1208 2742 
Q 947 2381 947 1747 
z
" transform="scale(0.015625)"/>
       <path id="DejaVuSans-65" d="M 3597 1894 
L 3597 1613 
L 953 1613 
Q 991 1019 1311 708 
Q 1631 397 2203 397 
Q 2534 397 2845 478 
Q 3156 559 3463 722 
L 3463 178 
Q 3153 47 2828 -22 
Q 2503 -91 2169 -91 
Q 1331 -91 842 396 
Q 353 884 353 1716 
Q 353 2575 817 3079 
Q 1281 3584 2069 3584 
Q 2775 3584 3186 3129 
Q 3597 2675 3597 1894 
z
M 3022 2063 
Q 3016 2534 2758 2815 
Q 2500 3097 2075 3097 
Q 1594 3097 1305 2825 
Q 1016 2553 972 2059 
L 3022 2063 
z
" transform="scale(0.015625)"/>
       <path id="DejaVuSans-6c" d="M 603 4863 
L 1178 4863 
L 1178 0 
L 603 0 
L 603 4863 
z
" transform="scale(0.015625)"/>
       <path id="DejaVuSans-73" d="M 2834 3397 
L 2834 2853 
Q 2591 2978 2328 3040 
Q 2066 3103 1784 3103 
Q 1356 3103 1142 2972 
Q 928 2841 928 2578 
Q 928 2378 1081 2264 
Q 1234 2150 1697 2047 
L 1894 2003 
Q 2506 1872 2764 1633 
Q 3022 1394 3022 966 
Q 3022 478 2636 193 
Q 2250 -91 1575 -91 
Q 1294 -91 989 -36 
Q 684 19 347 128 
L 347 722 
Q 666 556 975 473 
Q 1284 391 1588 391 
Q 1994 391 2212 530 
Q 2431 669 2431 922 
Q 2431 1156 2273 1281 
Q 2116 1406 1581 1522 
L 1381 1569 
Q 847 1681 609 1914 
Q 372 2147 372 2553 
Q 372 3047 722 3315 
Q 1072 3584 1716 3584 
Q 2034 3584 2315 3537 
Q 2597 3491 2834 3397 
z
" transform="scale(0.015625)"/>
      </defs>
      <use xlink:href="#DejaVuSans-4d"/>
      <use xlink:href="#DejaVuSans-6f" transform="translate(86.279297 0)"/>
      <use xlink:href="#DejaVuSans-64" transform="translate(147.460938 0)"/>
      <use xlink:href="#DejaVuSans-65" transform="translate(210.9375 0)"/>
      <use xlink:href="#DejaVuSans-6c" transform="translate(272.460938 0)"/>
      <use xlink:href="#DejaVuSans-73" transform="translate(300.244141 0)"/>
     </g>
    </g>
    <g id="line2d_23">
     <path d="M 81.888041 71.573863 
L 91.884041 71.573863 
L 101.880041 71.573863 
" style="fill: none; stroke: #1f77b4; stroke-width: 1.5; stroke-linecap: round"/>
     <g>
      <use xlink:href="#m28b74e110f" x="91.884041" y="71.573863" style="fill: #1f77b4; stroke: #ffffff; stroke-width: 0.75"/>
     </g>
    </g>
    <g id="text_20">
     <!-- catboost_tweedie_tuned_activity -->
     <g style="fill: #262626" transform="translate(109.876841 75.072463) scale(0.09996 -0.09996)">
      <defs>
       <path id="DejaVuSans-63" d="M 3122 3366 
L 3122 2828 
Q 2878 2963 2633 3030 
Q 2388 3097 2138 3097 
Q 1578 3097 1268 2742 
Q 959 2388 959 1747 
Q 959 1106 1268 751 
Q 1578 397 2138 397 
Q 2388 397 2633 464 
Q 2878 531 3122 666 
L 3122 134 
Q 2881 22 2623 -34 
Q 2366 -91 2075 -91 
Q 1284 -91 818 406 
Q 353 903 353 1747 
Q 353 2603 823 3093 
Q 1294 3584 2113 3584 
Q 2378 3584 2631 3529 
Q 2884 3475 3122 3366 
z
" transform="scale(0.015625)"/>
       <path id="DejaVuSans-61" d="M 2194 1759 
Q 1497 1759 1228 1600 
Q 959 1441 959 1056 
Q 959 750 1161 570 
Q 1363 391 1709 391 
Q 2188 391 2477 730 
Q 2766 1069 2766 1631 
L 2766 1759 
L 2194 1759 
z
M 3341 1997 
L 3341 0 
L 2766 0 
L 2766 531 
Q 2569 213 2275 61 
Q 1981 -91 1556 -91 
Q 1019 -91 701 211 
Q 384 513 384 1019 
Q 384 1609 779 1909 
Q 1175 2209 1959 2209 
L 2766 2209 
L 2766 2266 
Q 2766 2663 2505 2880 
Q 2244 3097 1772 3097 
Q 1472 3097 1187 3025 
Q 903 2953 641 2809 
L 641 3341 
Q 956 3463 1253 3523 
Q 1550 3584 1831 3584 
Q 2591 3584 2966 3190 
Q 3341 2797 3341 1997 
z
" transform="scale(0.015625)"/>
       <path id="DejaVuSans-74" d="M 1172 4494 
L 1172 3500 
L 2356 3500 
L 2356 3053 
L 1172 3053 
L 1172 1153 
Q 1172 725 1289 603 
Q 1406 481 1766 481 
L 2356 481 
L 2356 0 
L 1766 0 
Q 1100 0 847 248 
Q 594 497 594 1153 
L 594 3053 
L 172 3053 
L 172 3500 
L 594 3500 
L 594 4494 
L 1172 4494 
z
" transform="scale(0.015625)"/>
       <path id="DejaVuSans-62" d="M 3116 1747 
Q 3116 2381 2855 2742 
Q 2594 3103 2138 3103 
Q 1681 3103 1420 2742 
Q 1159 2381 1159 1747 
Q 1159 1113 1420 752 
Q 1681 391 2138 391 
Q 2594 391 2855 752 
Q 3116 1113 3116 1747 
z
M 1159 2969 
Q 1341 3281 1617 3432 
Q 1894 3584 2278 3584 
Q 2916 3584 3314 3078 
Q 3713 2572 3713 1747 
Q 3713 922 3314 415 
Q 2916 -91 2278 -91 
Q 1894 -91 1617 61 
Q 1341 213 1159 525 
L 1159 0 
L 581 0 
L 581 4863 
L 1159 4863 
L 1159 2969 
z
" transform="scale(0.015625)"/>
       <path id="DejaVuSans-5f" d="M 3263 -1063 
L 3263 -1509 
L -63 -1509 
L -63 -1063 
L 3263 -1063 
z
" transform="scale(0.015625)"/>
       <path id="DejaVuSans-77" d="M 269 3500 
L 844 3500 
L 1563 769 
L 2278 3500 
L 2956 3500 
L 3675 769 
L 4391 3500 
L 4966 3500 
L 4050 0 
L 3372 0 
L 2619 2869 
L 1863 0 
L 1184 0 
L 269 3500 
z
" transform="scale(0.015625)"/>
       <path id="DejaVuSans-75" d="M 544 1381 
L 544 3500 
L 1119 3500 
L 1119 1403 
Q 1119 906 1312 657 
Q 1506 409 1894 409 
Q 2359 409 2629 706 
Q 2900 1003 2900 1516 
L 2900 3500 
L 3475 3500 
L 3475 0 
L 2900 0 
L 2900 538 
Q 2691 219 2414 64 
Q 2138 -91 1772 -91 
Q 1169 -91 856 284 
Q 544 659 544 1381 
z
M 1991 3584 
L 1991 3584 
z
" transform="scale(0.015625)"/>
       <path id="DejaVuSans-76" d="M 191 3500 
L 800 3500 
L 1894 563 
L 2988 3500 
L 3597 3500 
L 2284 0 
L 1503 0 
L 191 3500 
z
" transform="scale(0.015625)"/>
       <path id="DejaVuSans-79" d="M 2059 -325 
Q 1816 -950 1584 -1140 
Q 1353 -1331 966 -1331 
L 506 -1331 
L 506 -850 
L 844 -850 
Q 1081 -850 1212 -737 
Q 1344 -625 1503 -206 
L 1606 56 
L 191 3500 
L 800 3500 
L 1894 763 
L 2988 3500 
L 3597 3500 
L 2059 -325 
z
" transform="scale(0.015625)"/>
      </defs>
      <use xlink:href="#DejaVuSans-63"/>
      <use xlink:href="#DejaVuSans-61" transform="translate(54.980469 0)"/>
      <use xlink:href="#DejaVuSans-74" transform="translate(116.259766 0)"/>
      <use xlink:href="#DejaVuSans-62" transform="translate(155.46875 0)"/>
      <use xlink:href="#DejaVuSans-6f" transform="translate(218.945312 0)"/>
      <use xlink:href="#DejaVuSans-6f" transform="translate(280.126953 0)"/>
      <use xlink:href="#DejaVuSans-73" transform="translate(341.308594 0)"/>
      <use xlink:href="#DejaVuSans-74" transform="translate(393.408203 0)"/>
      <use xlink:href="#DejaVuSans-5f" transform="translate(432.617188 0)"/>
      <use xlink:href="#DejaVuSans-74" transform="translate(482.617188 0)"/>
      <use xlink:href="#DejaVuSans-77" transform="translate(521.826172 0)"/>
      <use xlink:href="#DejaVuSans-65" transform="translate(603.613281 0)"/>
      <use xlink:href="#DejaVuSans-65" transform="translate(665.136719 0)"/>
      <use xlink:href="#DejaVuSans-64" transform="translate(726.660156 0)"/>
      <use xlink:href="#DejaVuSans-69" transform="translate(790.136719 0)"/>
      <use xlink:href="#DejaVuSans-65" transform="translate(817.919922 0)"/>
      <use xlink:href="#DejaVuSans-5f" transform="translate(879.443359 0)"/>
      <use xlink:href="#DejaVuSans-74" transform="translate(929.443359 0)"/>
      <use xlink:href="#DejaVuSans-75" transform="translate(968.652344 0)"/>
      <use xlink:href="#DejaVuSans-6e" transform="translate(1032.03125 0)"/>
      <use xlink:href="#DejaVuSans-65" transform="translate(1095.410156 0)"/>
      <use xlink:href="#DejaVuSans-64" transform="translate(1156.933594 0)"/>
      <use xlink:href="#DejaVuSans-5f" transform="translate(1220.410156 0)"/>
      <use xlink:href="#DejaVuSans-61" transform="translate(1270.410156 0)"/>
      <use xlink:href="#DejaVuSans-63" transform="translate(1331.689453 0)"/>
      <use xlink:href="#DejaVuSans-74" transform="translate(1386.669922 0)"/>
      <use xlink:href="#DejaVuSans-69" transform="translate(1425.878906 0)"/>
      <use xlink:href="#DejaVuSans-76" transform="translate(1453.662109 0)"/>
      <use xlink:href="#DejaVuSans-69" transform="translate(1512.841797 0)"/>
      <use xlink:href="#DejaVuSans-74" transform="translate(1540.625 0)"/>
      <use xlink:href="#DejaVuSans-79" transform="translate(1579.833984 0)"/>
     </g>
    </g>
    <g id="line2d_24">
     <path d="M 81.888041 86.524131 
L 91.884041 86.524131 
L 101.880041 86.524131 
" style="fill: none; stroke: #aec7e8; stroke-width: 1.5; stroke-linecap: round"/>
     <g>
      <use xlink:href="#mf5f03d3ecc" x="91.884041" y="86.524131" style="fill: #aec7e8; stroke: #ffffff; stroke-width: 0.75"/>
     </g>
    </g>
    <g id="text_21">
     <!-- chronos2_fine_tuned_global -->
     <g style="fill: #262626" transform="translate(109.876841 90.022731) scale(0.09996 -0.09996)">
      <defs>
       <path id="DejaVuSans-68" d="M 3513 2113 
L 3513 0 
L 2938 0 
L 2938 2094 
Q 2938 2591 2744 2837 
Q 2550 3084 2163 3084 
Q 1697 3084 1428 2787 
Q 1159 2491 1159 1978 
L 1159 0 
L 581 0 
L 581 4863 
L 1159 4863 
L 1159 2956 
Q 1366 3272 1645 3428 
Q 1925 3584 2291 3584 
Q 2894 3584 3203 3211 
Q 3513 2838 3513 2113 
z
" transform="scale(0.015625)"/>
       <path id="DejaVuSans-66" d="M 2375 4863 
L 2375 4384 
L 1825 4384 
Q 1516 4384 1395 4259 
Q 1275 4134 1275 3809 
L 1275 3500 
L 2222 3500 
L 2222 3053 
L 1275 3053 
L 1275 0 
L 697 0 
L 697 3053 
L 147 3053 
L 147 3500 
L 697 3500 
L 697 3744 
Q 697 4328 969 4595 
Q 1241 4863 1831 4863 
L 2375 4863 
z
" transform="scale(0.015625)"/>
       <path id="DejaVuSans-67" d="M 2906 1791 
Q 2906 2416 2648 2759 
Q 2391 3103 1925 3103 
Q 1463 3103 1205 2759 
Q 947 2416 947 1791 
Q 947 1169 1205 825 
Q 1463 481 1925 481 
Q 2391 481 2648 825 
Q 2906 1169 2906 1791 
z
M 3481 434 
Q 3481 -459 3084 -895 
Q 2688 -1331 1869 -1331 
Q 1566 -1331 1297 -1286 
Q 1028 -1241 775 -1147 
L 775 -588 
Q 1028 -725 1275 -790 
Q 1522 -856 1778 -856 
Q 2344 -856 2625 -561 
Q 2906 -266 2906 331 
L 2906 616 
Q 2728 306 2450 153 
Q 2172 0 1784 0 
Q 1141 0 747 490 
Q 353 981 353 1791 
Q 353 2603 747 3093 
Q 1141 3584 1784 3584 
Q 2172 3584 2450 3431 
Q 2728 3278 2906 2969 
L 2906 3500 
L 3481 3500 
L 3481 434 
z
" transform="scale(0.015625)"/>
      </defs>
      <use xlink:href="#DejaVuSans-63"/>
      <use xlink:href="#DejaVuSans-68" transform="translate(54.980469 0)"/>
      <use xlink:href="#DejaVuSans-72" transform="translate(118.359375 0)"/>
      <use xlink:href="#DejaVuSans-6f" transform="translate(157.222656 0)"/>
      <use xlink:href="#DejaVuSans-6e" transform="translate(218.404297 0)"/>
      <use xlink:href="#DejaVuSans-6f" transform="translate(281.783203 0)"/>
      <use xlink:href="#DejaVuSans-73" transform="translate(342.964844 0)"/>
      <use xlink:href="#DejaVuSans-32" transform="translate(395.064453 0)"/>
      <use xlink:href="#DejaVuSans-5f" transform="translate(458.6875 0)"/>
      <use xlink:href="#DejaVuSans-66" transform="translate(508.6875 0)"/>
      <use xlink:href="#DejaVuSans-69" transform="translate(543.892578 0)"/>
      <use xlink:href="#DejaVuSans-6e" transform="translate(571.675781 0)"/>
      <use xlink:href="#DejaVuSans-65" transform="translate(635.054688 0)"/>
      <use xlink:href="#DejaVuSans-5f" transform="translate(696.578125 0)"/>
      <use xlink:href="#DejaVuSans-74" transform="translate(746.578125 0)"/>
      <use xlink:href="#DejaVuSans-75" transform="translate(785.787109 0)"/>
      <use xlink:href="#DejaVuSans-6e" transform="translate(849.166016 0)"/>
      <use xlink:href="#DejaVuSans-65" transform="translate(912.544922 0)"/>
      <use xlink:href="#DejaVuSans-64" transform="translate(974.068359 0)"/>
      <use xlink:href="#DejaVuSans-5f" transform="translate(1037.544922 0)"/>
      <use xlink:href="#DejaVuSans-67" transform="translate(1087.544922 0)"/>
      <use xlink:href="#DejaVuSans-6c" transform="translate(1151.021484 0)"/>
      <use xlink:href="#DejaVuSans-6f" transform="translate(1178.804688 0)"/>
      <use xlink:href="#DejaVuSans-62" transform="translate(1239.986328 0)"/>
      <use xlink:href="#DejaVuSans-61" transform="translate(1303.462891 0)"/>
      <use xlink:href="#DejaVuSans-6c" transform="translate(1364.742188 0)"/>
     </g>
    </g>
    <g id="line2d_25">
     <path d="M 293.707966 71.573863 
L 303.703966 71.573863 
L 313.699966 71.573863 
" style="fill: none; stroke: #ff7f0e; stroke-width: 1.5; stroke-linecap: round"/>
     <g>
      <use xlink:href="#me362f5e141" x="303.703966" y="71.573863" style="fill: #ff7f0e; stroke: #ffffff; stroke-width: 0.75"/>
     </g>
    </g>
    <g id="text_22">
     <!-- catboost_tweedie_tuned_global -->
     <g style="fill: #262626" transform="translate(321.696766 75.072463) scale(0.09996 -0.09996)">
      <use xlink:href="#DejaVuSans-63"/>
      <use xlink:href="#DejaVuSans-61" transform="translate(54.980469 0)"/>
      <use xlink:href="#DejaVuSans-74" transform="translate(116.259766 0)"/>
      <use xlink:href="#DejaVuSans-62" transform="translate(155.46875 0)"/>
      <use xlink:href="#DejaVuSans-6f" transform="translate(218.945312 0)"/>
      <use xlink:href="#DejaVuSans-6f" transform="translate(280.126953 0)"/>
      <use xlink:href="#DejaVuSans-73" transform="translate(341.308594 0)"/>
      <use xlink:href="#DejaVuSans-74" transform="translate(393.408203 0)"/>
      <use xlink:href="#DejaVuSans-5f" transform="translate(432.617188 0)"/>
      <use xlink:href="#DejaVuSans-74" transform="translate(482.617188 0)"/>
      <use xlink:href="#DejaVuSans-77" transform="translate(521.826172 0)"/>
      <use xlink:href="#DejaVuSans-65" transform="translate(603.613281 0)"/>
      <use xlink:href="#DejaVuSans-65" transform="translate(665.136719 0)"/>
      <use xlink:href="#DejaVuSans-64" transform="translate(726.660156 0)"/>
      <use xlink:href="#DejaVuSans-69" transform="translate(790.136719 0)"/>
      <use xlink:href="#DejaVuSans-65" transform="translate(817.919922 0)"/>
      <use xlink:href="#DejaVuSans-5f" transform="translate(879.443359 0)"/>
      <use xlink:href="#DejaVuSans-74" transform="translate(929.443359 0)"/>
      <use xlink:href="#DejaVuSans-75" transform="translate(968.652344 0)"/>
      <use xlink:href="#DejaVuSans-6e" transform="translate(1032.03125 0)"/>
      <use xlink:href="#DejaVuSans-65" transform="translate(1095.410156 0)"/>
      <use xlink:href="#DejaVuSans-64" transform="translate(1156.933594 0)"/>
      <use xlink:href="#DejaVuSans-5f" transform="translate(1220.410156 0)"/>
      <use xlink:href="#DejaVuSans-67" transform="translate(1270.410156 0)"/>
      <use xlink:href="#DejaVuSans-6c" transform="translate(1333.886719 0)"/>
      <use xlink:href="#DejaVuSans-6f" transform="translate(1361.669922 0)"/>
      <use xlink:href="#DejaVuSans-62" transform="translate(1422.851562 0)"/>
      <use xlink:href="#DejaVuSans-61" transform="translate(1486.328125 0)"/>
      <use xlink:href="#DejaVuSans-6c" transform="translate(1547.607422 0)"/>
     </g>
    </g>
    <g id="line2d_26">
     <path d="M 293.707966 86.524131 
L 303.703966 86.524131 
L 313.699966 86.524131 
" style="fill: none; stroke: #ffbb78; stroke-width: 1.5; stroke-linecap: round"/>
     <g>
      <use xlink:href="#m4f8ebd20ca" x="303.703966" y="86.524131" style="fill: #ffbb78; stroke: #ffffff; stroke-width: 0.75"/>
     </g>
    </g>
    <g id="text_23">
     <!-- lightgbm_poisson_tuned_global -->
     <g style="fill: #262626" transform="translate(321.696766 90.022731) scale(0.09996 -0.09996)">
      <defs>
       <path id="DejaVuSans-6d" d="M 3328 2828 
Q 3544 3216 3844 3400 
Q 4144 3584 4550 3584 
Q 5097 3584 5394 3201 
Q 5691 2819 5691 2113 
L 5691 0 
L 5113 0 
L 5113 2094 
Q 5113 2597 4934 2840 
Q 4756 3084 4391 3084 
Q 3944 3084 3684 2787 
Q 3425 2491 3425 1978 
L 3425 0 
L 2847 0 
L 2847 2094 
Q 2847 2600 2669 2842 
Q 2491 3084 2119 3084 
Q 1678 3084 1418 2786 
Q 1159 2488 1159 1978 
L 1159 0 
L 581 0 
L 581 3500 
L 1159 3500 
L 1159 2956 
Q 1356 3278 1631 3431 
Q 1906 3584 2284 3584 
Q 2666 3584 2933 3390 
Q 3200 3197 3328 2828 
z
" transform="scale(0.015625)"/>
       <path id="DejaVuSans-70" d="M 1159 525 
L 1159 -1331 
L 581 -1331 
L 581 3500 
L 1159 3500 
L 1159 2969 
Q 1341 3281 1617 3432 
Q 1894 3584 2278 3584 
Q 2916 3584 3314 3078 
Q 3713 2572 3713 1747 
Q 3713 922 3314 415 
Q 2916 -91 2278 -91 
Q 1894 -91 1617 61 
Q 1341 213 1159 525 
z
M 3116 1747 
Q 3116 2381 2855 2742 
Q 2594 3103 2138 3103 
Q 1681 3103 1420 2742 
Q 1159 2381 1159 1747 
Q 1159 1113 1420 752 
Q 1681 391 2138 391 
Q 2594 391 2855 752 
Q 3116 1113 3116 1747 
z
" transform="scale(0.015625)"/>
      </defs>
      <use xlink:href="#DejaVuSans-6c"/>
      <use xlink:href="#DejaVuSans-69" transform="translate(27.783203 0)"/>
      <use xlink:href="#DejaVuSans-67" transform="translate(55.566406 0)"/>
      <use xlink:href="#DejaVuSans-68" transform="translate(119.042969 0)"/>
      <use xlink:href="#DejaVuSans-74" transform="translate(182.421875 0)"/>
      <use xlink:href="#DejaVuSans-67" transform="translate(221.630859 0)"/>
      <use xlink:href="#DejaVuSans-62" transform="translate(285.107422 0)"/>
      <use xlink:href="#DejaVuSans-6d" transform="translate(348.583984 0)"/>
      <use xlink:href="#DejaVuSans-5f" transform="translate(445.996094 0)"/>
      <use xlink:href="#DejaVuSans-70" transform="translate(495.996094 0)"/>
      <use xlink:href="#DejaVuSans-6f" transform="translate(559.472656 0)"/>
      <use xlink:href="#DejaVuSans-69" transform="translate(620.654297 0)"/>
      <use xlink:href="#DejaVuSans-73" transform="translate(648.4375 0)"/>
      <use xlink:href="#DejaVuSans-73" transform="translate(700.537109 0)"/>
      <use xlink:href="#DejaVuSans-6f" transform="translate(752.636719 0)"/>
      <use xlink:href="#DejaVuSans-6e" transform="translate(813.818359 0)"/>
      <use xlink:href="#DejaVuSans-5f" transform="translate(877.197266 0)"/>
      <use xlink:href="#DejaVuSans-74" transform="translate(927.197266 0)"/>
      <use xlink:href="#DejaVuSans-75" transform="translate(966.40625 0)"/>
      <use xlink:href="#DejaVuSans-6e" transform="translate(1029.785156 0)"/>
      <use xlink:href="#DejaVuSans-65" transform="translate(1093.164062 0)"/>
      <use xlink:href="#DejaVuSans-64" transform="translate(1154.6875 0)"/>
      <use xlink:href="#DejaVuSans-5f" transform="translate(1218.164062 0)"/>
      <use xlink:href="#DejaVuSans-67" transform="translate(1268.164062 0)"/>
      <use xlink:href="#DejaVuSans-6c" transform="translate(1331.640625 0)"/>
      <use xlink:href="#DejaVuSans-6f" transform="translate(1359.423828 0)"/>
      <use xlink:href="#DejaVuSans-62" transform="translate(1420.605469 0)"/>
      <use xlink:href="#DejaVuSans-61" transform="translate(1484.082031 0)"/>
      <use xlink:href="#DejaVuSans-6c" transform="translate(1545.361328 0)"/>
     </g>
    </g>
    <g id="line2d_27">
     <path d="M 499.169499 71.573863 
L 509.165499 71.573863 
L 519.161499 71.573863 
" style="fill: none; stroke: #2ca02c; stroke-width: 1.5; stroke-linecap: round"/>
     <g>
      <use xlink:href="#m67040f96c0" x="509.165499" y="71.573863" style="fill: #2ca02c; stroke: #ffffff; stroke-width: 0.75"/>
     </g>
    </g>
    <g id="text_24">
     <!-- lstm_poisson_w28_tuned_activity -->
     <g style="fill: #262626" transform="translate(527.158299 75.072463) scale(0.09996 -0.09996)">
      <use xlink:href="#DejaVuSans-6c"/>
      <use xlink:href="#DejaVuSans-73" transform="translate(27.783203 0)"/>
      <use xlink:href="#DejaVuSans-74" transform="translate(79.882812 0)"/>
      <use xlink:href="#DejaVuSans-6d" transform="translate(119.091797 0)"/>
      <use xlink:href="#DejaVuSans-5f" transform="translate(216.503906 0)"/>
      <use xlink:href="#DejaVuSans-70" transform="translate(266.503906 0)"/>
      <use xlink:href="#DejaVuSans-6f" transform="translate(329.980469 0)"/>
      <use xlink:href="#DejaVuSans-69" transform="translate(391.162109 0)"/>
      <use xlink:href="#DejaVuSans-73" transform="translate(418.945312 0)"/>
      <use xlink:href="#DejaVuSans-73" transform="translate(471.044922 0)"/>
      <use xlink:href="#DejaVuSans-6f" transform="translate(523.144531 0)"/>
      <use xlink:href="#DejaVuSans-6e" transform="translate(584.326172 0)"/>
      <use xlink:href="#DejaVuSans-5f" transform="translate(647.705078 0)"/>
      <use xlink:href="#DejaVuSans-77" transform="translate(697.705078 0)"/>
      <use xlink:href="#DejaVuSans-32" transform="translate(779.492188 0)"/>
      <use xlink:href="#DejaVuSans-38" transform="translate(843.115234 0)"/>
      <use xlink:href="#DejaVuSans-5f" transform="translate(906.738281 0)"/>
      <use xlink:href="#DejaVuSans-74" transform="translate(956.738281 0)"/>
      <use xlink:href="#DejaVuSans-75" transform="translate(995.947266 0)"/>
      <use xlink:href="#DejaVuSans-6e" transform="translate(1059.326172 0)"/>
      <use xlink:href="#DejaVuSans-65" transform="translate(1122.705078 0)"/>
      <use xlink:href="#DejaVuSans-64" transform="translate(1184.228516 0)"/>
      <use xlink:href="#DejaVuSans-5f" transform="translate(1247.705078 0)"/>
      <use xlink:href="#DejaVuSans-61" transform="translate(1297.705078 0)"/>
      <use xlink:href="#DejaVuSans-63" transform="translate(1358.984375 0)"/>
      <use xlink:href="#DejaVuSans-74" transform="translate(1413.964844 0)"/>
      <use xlink:href="#DejaVuSans-69" transform="translate(1453.173828 0)"/>
      <use xlink:href="#DejaVuSans-76" transform="translate(1480.957031 0)"/>
      <use xlink:href="#DejaVuSans-69" transform="translate(1540.136719 0)"/>
      <use xlink:href="#DejaVuSans-74" transform="translate(1567.919922 0)"/>
      <use xlink:href="#DejaVuSans-79" transform="translate(1607.128906 0)"/>
     </g>
    </g>
    <g id="line2d_28">
     <path d="M 499.169499 86.524131 
L 509.165499 86.524131 
L 519.161499 86.524131 
" style="fill: none; stroke: #323232; stroke-opacity: 0.5; stroke-width: 1.5; stroke-linecap: round"/>
     <g>
      <use xlink:href="#m58c4395a44" x="509.165499" y="86.524131" style="fill: #323232; fill-opacity: 0.5; stroke: #ffffff; stroke-width: 0.75"/>
     </g>
    </g>
    <g id="text_25">
     <!-- naive_weekly_global -->
     <g style="fill: #262626" transform="translate(527.158299 90.022731) scale(0.09996 -0.09996)">
      <defs>
       <path id="DejaVuSans-6b" d="M 581 4863 
L 1159 4863 
L 1159 1991 
L 2875 3500 
L 3609 3500 
L 1753 1863 
L 3688 0 
L 2938 0 
L 1159 1709 
L 1159 0 
L 581 0 
L 581 4863 
z
" transform="scale(0.015625)"/>
      </defs>
      <use xlink:href="#DejaVuSans-6e"/>
      <use xlink:href="#DejaVuSans-61" transform="translate(63.378906 0)"/>
      <use xlink:href="#DejaVuSans-69" transform="translate(124.658203 0)"/>
      <use xlink:href="#DejaVuSans-76" transform="translate(152.441406 0)"/>
      <use xlink:href="#DejaVuSans-65" transform="translate(211.621094 0)"/>
      <use xlink:href="#DejaVuSans-5f" transform="translate(273.144531 0)"/>
      <use xlink:href="#DejaVuSans-77" transform="translate(323.144531 0)"/>
      <use xlink:href="#DejaVuSans-65" transform="translate(404.931641 0)"/>
      <use xlink:href="#DejaVuSans-65" transform="translate(466.455078 0)"/>
      <use xlink:href="#DejaVuSans-6b" transform="translate(527.978516 0)"/>
      <use xlink:href="#DejaVuSans-6c" transform="translate(585.888672 0)"/>
      <use xlink:href="#DejaVuSans-79" transform="translate(613.671875 0)"/>
      <use xlink:href="#DejaVuSans-5f" transform="translate(672.851562 0)"/>
      <use xlink:href="#DejaVuSans-67" transform="translate(722.851562 0)"/>
      <use xlink:href="#DejaVuSans-6c" transform="translate(786.328125 0)"/>
      <use xlink:href="#DejaVuSans-6f" transform="translate(814.111328 0)"/>
      <use xlink:href="#DejaVuSans-62" transform="translate(875.292969 0)"/>
      <use xlink:href="#DejaVuSans-61" transform="translate(938.769531 0)"/>
      <use xlink:href="#DejaVuSans-6c" transform="translate(1000.048828 0)"/>
     </g>
    </g>
   </g>
  </g>
  <g id="text_26">
   <!-- Comparing Model MAE over Horizons -->
   <g style="fill: #262626" transform="translate(218.073437 19.3575) scale(0.16 -0.16)">
    <defs>
     <path id="DejaVuSans-43" d="M 4122 4306 
L 4122 3641 
Q 3803 3938 3442 4084 
Q 3081 4231 2675 4231 
Q 1875 4231 1450 3742 
Q 1025 3253 1025 2328 
Q 1025 1406 1450 917 
Q 1875 428 2675 428 
Q 3081 428 3442 575 
Q 3803 722 4122 1019 
L 4122 359 
Q 3791 134 3420 21 
Q 3050 -91 2638 -91 
Q 1578 -91 968 557 
Q 359 1206 359 2328 
Q 359 3453 968 4101 
Q 1578 4750 2638 4750 
Q 3056 4750 3426 4639 
Q 3797 4528 4122 4306 
z
" transform="scale(0.015625)"/>
     <path id="DejaVuSans-20" transform="scale(0.015625)"/>
    </defs>
    <use xlink:href="#DejaVuSans-43"/>
    <use xlink:href="#DejaVuSans-6f" transform="translate(69.824219 0)"/>
    <use xlink:href="#DejaVuSans-6d" transform="translate(131.005859 0)"/>
    <use xlink:href="#DejaVuSans-70" transform="translate(228.417969 0)"/>
    <use xlink:href="#DejaVuSans-61" transform="translate(291.894531 0)"/>
    <use xlink:href="#DejaVuSans-72" transform="translate(353.173828 0)"/>
    <use xlink:href="#DejaVuSans-69" transform="translate(394.287109 0)"/>
    <use xlink:href="#DejaVuSans-6e" transform="translate(422.070312 0)"/>
    <use xlink:href="#DejaVuSans-67" transform="translate(485.449219 0)"/>
    <use xlink:href="#DejaVuSans-20" transform="translate(548.925781 0)"/>
    <use xlink:href="#DejaVuSans-4d" transform="translate(580.712891 0)"/>
    <use xlink:href="#DejaVuSans-6f" transform="translate(666.992188 0)"/>
    <use xlink:href="#DejaVuSans-64" transform="translate(728.173828 0)"/>
    <use xlink:href="#DejaVuSans-65" transform="translate(791.650391 0)"/>
    <use xlink:href="#DejaVuSans-6c" transform="translate(853.173828 0)"/>
    <use xlink:href="#DejaVuSans-20" transform="translate(880.957031 0)"/>
    <use xlink:href="#DejaVuSans-4d" transform="translate(912.744141 0)"/>
    <use xlink:href="#DejaVuSans-41" transform="translate(999.023438 0)"/>
    <use xlink:href="#DejaVuSans-45" transform="translate(1067.431641 0)"/>
    <use xlink:href="#DejaVuSans-20" transform="translate(1130.615234 0)"/>
    <use xlink:href="#DejaVuSans-6f" transform="translate(1162.402344 0)"/>
    <use xlink:href="#DejaVuSans-76" transform="translate(1223.583984 0)"/>
    <use xlink:href="#DejaVuSans-65" transform="translate(1282.763672 0)"/>
    <use xlink:href="#DejaVuSans-72" transform="translate(1344.287109 0)"/>
    <use xlink:href="#DejaVuSans-20" transform="translate(1385.400391 0)"/>
    <use xlink:href="#DejaVuSans-48" transform="translate(1417.1875 0)"/>
    <use xlink:href="#DejaVuSans-6f" transform="translate(1492.382812 0)"/>
    <use xlink:href="#DejaVuSans-72" transform="translate(1553.564453 0)"/>
    <use xlink:href="#DejaVuSans-69" transform="translate(1594.677734 0)"/>
    <use xlink:href="#DejaVuSans-7a" transform="translate(1622.460938 0)"/>
    <use xlink:href="#DejaVuSans-6f" transform="translate(1674.951172 0)"/>
    <use xlink:href="#DejaVuSans-6e" transform="translate(1736.132812 0)"/>
    <use xlink:href="#DejaVuSans-73" transform="translate(1799.511719 0)"/>
   </g>
  </g>
 </g>
 <defs>
  <clipPath id="p077d3f0638">
   <rect x="63.804688" y="106.56" width="648" height="259.2"/>
  </clipPath>
 </defs>
</svg>
